<svg version="1.2" xmlns="http://www.w3.org/2000/svg" viewBox="0 0 128 95" width="128" height="95">
	<title>New Project</title>
	<style>
		.s0 { fill: #4bb0eb } 
		.s1 { fill: #1c75bc } 
		.s2 { fill: #ebb000 } 
	</style>
	<g id="&lt;Group&gt;">
		<path id="&lt;Path&gt;" class="s0" d="m78.2 4.2c-14.2-9.2-34.8 2.4-45.9 25.8-0.7 1.5-2.2 4.8-2.8 6.3 0 0 4.5-2.2 4.7-2.6 0.2-0.5 1.3-2.9 1.6-3.4 10.2-20.3 27.9-30.4 39.6-22.9 11.9 7.7 12.4 31.1 2.3 52.5-10.1 21.3-26.9 32.5-38.9 24.8-4.9-3.2-8.1-9-9.4-16.3-1.3 0.2-2.4 0-3.3-0.1 1.5 9.2 5.6 16.8 12 20.9 14.2 9.2 34.8-2.4 45.9-25.8 11.1-23.5 8.5-50-5.8-59.2z"/>
		<g id="&lt;Group&gt;">
			<path id="&lt;Path&gt;" class="s1" d="m28.3 66.4c-5.2 0-9.4-4.1-9.4-9.2 0-5.2 4.2-9.3 9.4-9.3 5.2 0 9.4 4.1 9.4 9.3 0 5.1-4.2 9.2-9.4 9.2z"/>
			<g id="&lt;Group&gt;">
				<path id="&lt;Compound Path&gt;" fill-rule="evenodd" class="s1" d="m16.7 57.2c0 2.1 0.6 4 1.6 5.7h-18v-3.6c2.9-0.5 8.2-1.2 8.2-1.2l4.1-8c-5.5 0-10 1.4-12.3 2.3v-2.5c0 0 8.6-10 33.5-10.2 19.5-11.1 19.5-13.2 32.6-12.5 3.4 0.2 7.1 0.6 11.2 1.2q0-3.2-0.5-6c-2.9-15.5-19-20.1-35.8 2.9 9.6-14.9 23.5-22.1 32.9-16 10.7 6.9 11.2 29.2 1.5 49.6-5.5 11.6-16.5 26-28.6 26-6.4 0-11.1-4.4-13.6-10.4-0.7-1.9-1.3-3.9-1.8-6 0.3 1.1 2 6.6 7.7 9.7 6.8 3.6 18.2 0.4 27.6-15.3h-28.6c1-1.7 1.5-3.6 1.5-5.7 0-6.4-5.2-11.6-11.6-11.6-6.4 0-11.6 5.2-11.6 11.6zm23.4-15.8q3.8-0.4 7.6-0.6c1.7-2.3 4-3.8 5.3-2.9 1 0.7 0.7 1.8 0.2 2.7 7.3-0.1 14.8 0.1 23 0 0.7-2.9 1.1-5.7 1.3-8.4-8.7-1.3-15.6-1.6-18.8-0.9-6.2 1.2-18.6 10.1-18.6 10.1z"/>
			</g>
		</g>
		<g id="&lt;Group&gt;">
			<path id="&lt;Path&gt;" class="s2" d="m106.8 66.6c-5.2 0-9.4-4.2-9.4-9.4 0-5.2 4.2-9.4 9.4-9.4 5.2 0 9.4 4.2 9.4 9.4 0 5.2-4.2 9.4-9.4 9.4z"/>
			<path id="&lt;Compound Path&gt;" fill-rule="evenodd" class="s2" d="m127.5 53.6c-0.4 2.6-4.3 3.4-5.7 9.3-8.7 0-1.1 0-4.9 0 0.9-1.7 1.5-3.6 1.5-5.7 0-6.5-5.2-11.7-11.6-11.7-6.4 0-11.7 5.2-11.7 11.7 0 2.1 0.6 4 1.6 5.7-1.4 0 1.8 0-5.4 0-9.1 20.5-24.3 30.6-36.1 30.9 11.9-3 23.5-13.9 30.8-29.5 1.8-3.6 3.2-7.4 4.3-11.2 2.5-8.4 3.4-16.9 2.6-24.8-0.9-9.5-4.5-19.3-12.1-25q1.9 0.7 3.8 1.8c7.9 5.1 12.3 15.2 12.9 27.2 8.3 2.1 17.7 5.1 28.4 9.3q0.5 1.7 0.9 3.1h-8.9c0 0 1.5 3.6 4.6 4.1 2.1 0.4 4 0.3 5.1 0.2 0.1 1.4 0.1 2.9-0.1 4.6zm-21.7-14.9q-4.2-1.3-8.3-2.4 0 1.2-0.1 2.5 1 0.2 1.9 0.4c4.3 0.8 4.1 0.1 6.5-0.5z"/>
		</g>
	</g>
</svg>