<?xml version="1.0" encoding="UTF-8"?>
<!DOCTYPE svg PUBLIC "-//W3C//DTD SVG 1.1//EN" "http://www.w3.org/Graphics/SVG/1.1/DTD/svg11.dtd">
<!-- Creator: CorelDRAW -->
<svg xmlns="http://www.w3.org/2000/svg" xml:space="preserve" width="91.44mm" height="91.44mm" version="1.1" style="shape-rendering:geometricPrecision; text-rendering:geometricPrecision; image-rendering:optimizeQuality; fill-rule:evenodd; clip-rule:evenodd"
viewBox="0 0 9144 9144"
 xmlns:xlink="http://www.w3.org/1999/xlink"
 xmlns:xodm="http://www.corel.com/coreldraw/odm/2003">
 <defs>
  <style type="text/css">
   <![CDATA[
    .str0 {stroke:#1C75BC;stroke-width:84.67;stroke-miterlimit:22.9256}
    .str2 {stroke:#1C75BC;stroke-width:169.33;stroke-miterlimit:22.9256}
    .str1 {stroke:#1C75BC;stroke-width:67.73;stroke-miterlimit:22.9256}
    .str6 {stroke:#EBB000;stroke-width:67.73;stroke-miterlimit:22.9256}
    .str3 {stroke:#1C75BC;stroke-width:42.33;stroke-miterlimit:22.9256}
    .str5 {stroke:#EBB000;stroke-width:25.4;stroke-miterlimit:22.9256}
    .str4 {stroke:#1C75BC;stroke-width:7.62;stroke-miterlimit:22.9256}
    .fil0 {fill:none}
    .fil4 {fill:none;fill-rule:nonzero}
    .fil1 {fill:#1C75BC}
    .fil2 {fill:#EBB000}
    .fil3 {fill:#1C75BC;fill-rule:nonzero}
    .fil5 {fill:#EBB000;fill-rule:nonzero}
   ]]>
  </style>
 </defs>
 <g id="Layer_x0020_1">
  <metadata id="CorelCorpID_0Corel-Layer"/>
  <g id="_2238485135376">
   <g>
    <g>
     <path class="fil0 str0" d="M444.5 4144.94c905.93,-381 1202.27,-457.2 2048.93,-440.27 745.07,-431.8 1582.4,-828.53 2726.27,-804.33 875.12,18.51 1924.34,207.76 3183.47,694.26 411.3,-47.26 689.79,8.55 574.96,172.37 12.71,122.14 55.56,140.46 -24.69,239.78l67.79 146.65"/>
     <path class="fil0 str0" d="M8953.44 4006.75c-185.09,-7.12 -596.29,99.2 -634.94,-132.75 18.94,-59.66 311.7,-122.2 682.52,-152.88"/>
     <path class="fil0 str1" d="M2772.83 3772.4c626.54,-397.93 1404.66,-771.88 2388.01,-726.97 983.35,44.91 1543.51,143.31 2336.39,405.24 -152.4,347.13 -1159.93,220.13 -2396.06,287.87l-2328.34 33.86z"/>
     <path class="fil0 str2" d="M5063.96 3038.77c-83.38,257.92 -147.49,503.45 -165.83,702.73"/>
     <path class="fil0 str2" d="M5229.25 3060.63c-43.34,301.08 -58.99,545.87 -18.03,675.56"/>
     <path class="fil0 str3" d="M6344.17 3157.28c211.96,185.1 367.02,371.86 479.97,527.93"/>
     <path class="fil1" d="M3082.26 3586.64c-31.48,61.3 -38.45,121.93 2.64,181.23l373.51 -5.43c74.54,-152.45 25.48,-252.3 -120.87,-310.78l-255.28 134.98z"/>
    </g>
    <path class="fil1" d="M7158.57 3730.07l939.8 -33.87c-208.17,-8.3 -429.93,-12.25 -584.2,-50.8 -94.27,44.44 -217.03,69.85 -355.6,84.67z"/>
    <path class="fil2" d="M1612.9 4085.67c338.67,25.4 626.53,25.4 965.2,50.8 2006.6,-118.53 3674.53,-169.33 5511.8,-254 -3877.74,25.4 -5503.34,76.2 -6477,203.2z"/>
    <path class="fil3" d="M1040.99 5184.75l145.82 0 -503.75 -839.61 -124.28 0 -503.75 839.61 145.82 0 129.26 -219.5 581.62 0 129.26 219.5zm-659.52 -307.06l183.94 -311.85c24.85,-43.18 53.02,-101.95 54.68,-101.95l1.66 0c1.66,0 29.83,58.77 54.68,101.95l183.94 311.85 -478.9 0z"/>
    <path id="_1" class="fil3" d="M2079.96 4345.14l0 492.97c0,182.32 -115.99,272.27 -341.35,272.27 -223.71,0 -339.71,-89.95 -339.71,-272.27l0 -492.97 -135.87 0 0 491.77c0,237.49 172.33,365.83 475.58,365.83 303.25,0 477.24,-128.34 477.24,-365.83l0 -491.77 -135.89 0z"/>
    <polygon id="_2" class="fil3" points="2374.93,4345.14 2374.93,4437.5 2762.69,4437.5 2762.69,5184.75 2896.9,5184.75 2896.9,4437.5 3286.32,4437.5 3286.32,4345.14 "/>
    <path id="_3" class="fil3" d="M3345.97 4764.95c0,253.08 268.43,436.59 601.51,436.59 333.07,0 603.17,-183.51 603.17,-436.59 0,-253.09 -270.1,-436.6 -603.17,-436.6 -333.08,0 -601.51,183.51 -601.51,436.6zm139.19 0c0,-203.91 198.84,-340.64 462.32,-340.64 261.81,0 462.33,136.73 462.33,340.64 0,201.5 -200.52,340.64 -462.33,340.64 -263.48,0 -462.32,-139.14 -462.32,-340.64z"/>
    <path id="_4" class="fil3" d="M5848.14 4549.05c-104.39,-134.34 -299.92,-220.7 -526.95,-220.7 -333.07,0 -601.5,183.51 -601.5,436.6 0,253.08 268.43,436.59 601.5,436.59 241.94,0 447.41,-95.95 543.52,-244.68l-134.23 -26.39c-76.21,105.55 -231.98,173.92 -409.29,173.92 -260.16,0 -462.32,-136.74 -462.32,-339.44 0,-202.71 197.19,-340.64 462.32,-340.64 162.4,0 309.88,57.57 389.41,149.93l137.54 -25.19z"/>
    <path id="_5" class="fil3" d="M6878.84 5184.75l145.83 0 -503.75 -839.61 -124.29 0 -503.75 839.61 145.83 0 129.25 -219.5 581.63 0 129.25 219.5zm-659.51 -307.06l183.93 -311.85c24.86,-43.18 53.03,-101.95 54.69,-101.95l1.65 0c1.66,0 29.83,58.77 54.68,101.95l183.94 311.85 -478.89 0z"/>
    <path id="_6" class="fil3" d="M8017.24 5184.75l-281.71 -333.44c154.11,-35.99 241.94,-121.15 241.94,-241.09 0,-161.93 -162.39,-265.08 -434.15,-265.08l-352.95 0 0 839.61 135.87 0 0 -313.05 217.08 0c19.88,0 41.42,0 59.66,-1.2l261.81 314.25 152.45 0zm-691 -400.61l0 -346.64 230.33 0c177.31,0 281.71,65.97 281.71,172.72 0,100.75 -96.12,173.92 -281.71,173.92l-230.33 0z"/>
    <polygon id="_7" class="fil3" points="8381.79,5092.39 8381.79,4784.14 8893.83,4784.14 8893.83,4696.58 8381.79,4696.58 8381.79,4437.5 9019.77,4437.5 9019.77,4345.14 8245.91,4345.14 8245.91,5184.75 9029.7,5184.75 9029.7,5092.39 "/>
    <path id="_8" class="fil4 str4" d="M1040.99 5184.75l145.82 0 -503.75 -839.61 -124.28 0 -503.75 839.61 145.82 0 129.26 -219.5 581.62 0 129.26 219.5zm-659.52 -307.06l183.94 -311.85c24.85,-43.18 53.02,-101.95 54.68,-101.95l1.66 0c1.66,0 29.83,58.77 54.68,101.95l183.94 311.85 -478.9 0z"/>
    <path id="_9" class="fil4 str4" d="M2079.96 4345.14l0 492.97c0,182.32 -115.99,272.27 -341.35,272.27 -223.71,0 -339.71,-89.95 -339.71,-272.27l0 -492.97 -135.87 0 0 491.77c0,237.49 172.33,365.83 475.58,365.83 303.25,0 477.24,-128.34 477.24,-365.83l0 -491.77 -135.89 0z"/>
    <polygon id="_10" class="fil4 str4" points="2374.93,4345.14 2374.93,4437.5 2762.69,4437.5 2762.69,5184.75 2896.9,5184.75 2896.9,4437.5 3286.32,4437.5 3286.32,4345.14 "/>
    <path id="_11" class="fil4 str4" d="M3345.97 4764.95c0,253.08 268.43,436.59 601.51,436.59 333.07,0 603.17,-183.51 603.17,-436.59 0,-253.09 -270.1,-436.6 -603.17,-436.6 -333.08,0 -601.51,183.51 -601.51,436.6zm139.19 0c0,-203.91 198.84,-340.64 462.32,-340.64 261.81,0 462.33,136.73 462.33,340.64 0,201.5 -200.52,340.64 -462.33,340.64 -263.48,0 -462.32,-139.14 -462.32,-340.64z"/>
    <path id="_12" class="fil4 str4" d="M5848.14 4549.05c-104.39,-134.34 -299.92,-220.7 -526.95,-220.7 -333.07,0 -601.5,183.51 -601.5,436.6 0,253.08 268.43,436.59 601.5,436.59 241.94,0 447.41,-95.95 543.52,-244.68l-134.23 -26.39c-76.21,105.55 -231.98,173.92 -409.29,173.92 -260.16,0 -462.32,-136.74 -462.32,-339.44 0,-202.71 197.19,-340.64 462.32,-340.64 162.4,0 309.88,57.57 389.41,149.93l137.54 -25.19z"/>
    <path id="_13" class="fil4 str4" d="M6878.84 5184.75l145.83 0 -503.75 -839.61 -124.29 0 -503.75 839.61 145.83 0 129.25 -219.5 581.63 0 129.25 219.5zm-659.51 -307.06l183.93 -311.85c24.86,-43.18 53.03,-101.95 54.69,-101.95l1.65 0c1.66,0 29.83,58.77 54.68,101.95l183.94 311.85 -478.89 0z"/>
    <path id="_14" class="fil4 str4" d="M8017.24 5184.75l-281.71 -333.44c154.11,-35.99 241.94,-121.15 241.94,-241.09 0,-161.93 -162.39,-265.08 -434.15,-265.08l-352.95 0 0 839.61 135.87 0 0 -313.05 217.08 0c19.88,0 41.42,0 59.66,-1.2l261.81 314.25 152.45 0zm-691 -400.61l0 -346.64 230.33 0c177.31,0 281.71,65.97 281.71,172.72 0,100.75 -96.12,173.92 -281.71,173.92l-230.33 0z"/>
    <polygon id="_15" class="fil4 str4" points="8381.79,5092.39 8381.79,4784.14 8893.83,4784.14 8893.83,4696.58 8381.79,4696.58 8381.79,4437.5 9019.77,4437.5 9019.77,4345.14 8245.91,4345.14 8245.91,5184.75 9029.7,5184.75 9029.7,5092.39 "/>
   </g>
   <g>
    <polygon class="fil5" points="3558.58,5533.88 3465.21,5676.16 3372.2,5533.88 3345.03,5533.88 3451.81,5696.74 3331.63,5880.07 3358.79,5880.07 3465.21,5717.44 3572.11,5880.07 3599.27,5880.07 3479.09,5696.74 3585.86,5533.88 "/>
    <polygon id="_1_0" class="fil4 str5" points="3558.58,5533.88 3465.21,5676.16 3372.2,5533.88 3345.03,5533.88 3451.81,5696.74 3331.63,5880.07 3358.79,5880.07 3465.21,5717.44 3572.11,5880.07 3599.27,5880.07 3479.09,5696.74 3585.86,5533.88 "/>
    <path class="fil5" d="M3845.39 5708.27c0,-44.57 15.76,-82.55 47.27,-113.95 31.4,-31.51 69.38,-47.27 113.72,-47.27 44.57,0 82.55,15.76 113.95,47.27 31.51,31.4 47.27,69.38 47.27,113.95 0,44.33 -15.76,82.32 -47.27,113.71 -31.4,31.52 -69.38,47.16 -113.95,47.16 -44.34,0 -82.32,-15.64 -113.72,-47.16 -31.51,-31.39 -47.27,-69.38 -47.27,-113.71zm-22.69 -173.21l0 514.35 22.69 0 0 -252.94c15.88,28.92 37.98,51.97 66.21,68.9 29.16,17.76 60.79,26.58 94.78,26.58 50.68,0 93.95,-17.99 129.82,-53.74 36.1,-36.1 54.09,-79.37 54.09,-129.94 0,-50.68 -17.99,-94.07 -54.09,-129.82 -35.87,-36.1 -79.14,-54.1 -129.82,-54.1 -33.99,0 -65.62,8.82 -94.78,26.46 -28.23,17.05 -50.33,39.98 -66.21,68.91l0 -84.66 -22.69 0z"/>
    <path id="_1_1" class="fil4 str5" d="M3845.39 5708.27c0,-44.57 15.76,-82.55 47.27,-113.95 31.4,-31.51 69.38,-47.27 113.72,-47.27 44.57,0 82.55,15.76 113.95,47.27 31.51,31.4 47.27,69.38 47.27,113.95 0,44.33 -15.76,82.32 -47.27,113.71 -31.4,31.52 -69.38,47.16 -113.95,47.16 -44.34,0 -82.32,-15.64 -113.72,-47.16 -31.51,-31.39 -47.27,-69.38 -47.27,-113.71zm-22.69 -173.21l0 514.35 22.69 0 0 -252.94c15.88,28.92 37.98,51.97 66.21,68.9 29.16,17.76 60.79,26.58 94.78,26.58 50.68,0 93.95,-17.99 129.82,-53.74 36.1,-36.1 54.09,-79.37 54.09,-129.94 0,-50.68 -17.99,-94.07 -54.09,-129.82 -35.87,-36.1 -79.14,-54.1 -129.82,-54.1 -33.99,0 -65.62,8.82 -94.78,26.46 -28.23,17.05 -50.33,39.98 -66.21,68.91l0 -84.66 -22.69 0z"/>
    <path class="fil5" d="M4487.21 5535.17l-22.69 0 0 346.55 22.69 0 0 -173.69c0,-44.33 15.76,-82.19 47.27,-113.59 31.4,-31.52 69.38,-47.27 113.72,-47.27l0 -22.7c-33.99,0 -65.62,8.82 -94.78,26.46 -28.23,17.05 -50.33,39.98 -66.21,68.91l0 -84.67z"/>
    <path id="_1_2" class="fil4 str5" d="M4487.21 5535.17l-22.69 0 0 346.55 22.69 0 0 -173.69c0,-44.33 15.76,-82.19 47.27,-113.59 31.4,-31.52 69.38,-47.27 113.72,-47.27l0 -22.7c-33.99,0 -65.62,8.82 -94.78,26.46 -28.23,17.05 -50.33,39.98 -66.21,68.91l0 -84.67z"/>
    <path class="fil5" d="M4853.27 5693.57c3.06,-42.1 19.88,-77.5 50.69,-106.19 31.04,-29.16 67.61,-43.74 109.95,-43.74 42.45,0 79.02,14.58 109.83,43.74 31.04,28.69 47.86,64.09 50.68,106.19l-321.15 0zm344.55 11.29c0,-50.69 -17.99,-93.96 -54.09,-129.83 -35.87,-36.1 -79.14,-54.09 -129.82,-54.09 -50.57,0 -93.84,17.99 -129.94,54.09 -35.87,35.87 -53.74,79.14 -53.74,129.83 0,50.56 17.87,93.84 53.74,129.94 36.1,35.75 79.37,53.74 129.94,53.74 50.68,0 93.95,-17.99 129.82,-53.74l-15.87 -16.23c-31.4,31.52 -69.38,47.27 -113.95,47.27 -42.34,0 -78.91,-14.58 -109.95,-43.51 -30.81,-28.92 -47.63,-64.32 -50.69,-106.07l344.55 0 0 -11.4z"/>
    <path id="_1_3" class="fil4 str5" d="M4853.27 5693.57c3.06,-42.1 19.88,-77.5 50.69,-106.19 31.04,-29.16 67.61,-43.74 109.95,-43.74 42.45,0 79.02,14.58 109.83,43.74 31.04,28.69 47.86,64.09 50.68,106.19l-321.15 0zm344.55 11.29c0,-50.69 -17.99,-93.96 -54.09,-129.83 -35.87,-36.1 -79.14,-54.09 -129.82,-54.09 -50.57,0 -93.84,17.99 -129.94,54.09 -35.87,35.87 -53.74,79.14 -53.74,129.83 0,50.56 17.87,93.84 53.74,129.94 36.1,35.75 79.37,53.74 129.94,53.74 50.68,0 93.95,-17.99 129.82,-53.74l-15.87 -16.23c-31.4,31.52 -69.38,47.27 -113.95,47.27 -42.34,0 -78.91,-14.58 -109.95,-43.51 -30.81,-28.92 -47.63,-64.32 -50.69,-106.07l344.55 0 0 -11.4z"/>
    <path class="fil5" d="M5550.6 5880.07c-43.04,0 -79.49,-15.88 -109.59,-47.51l16.58 -15.52c17.64,18.58 39.27,30.81 64.79,36.8 13.29,3.3 24.46,4.24 33.4,3.18 22.46,-1.41 40.69,-8.11 54.8,-19.99 16.22,-14.23 23.75,-33.99 22.34,-59.27 -1.41,-19.05 -8.94,-33.86 -22.7,-44.45 -14.11,-10.82 -36.8,-19.05 -68.2,-24.81 -63.85,-12.23 -97.37,-42.45 -100.31,-91.02 -1.88,-26.81 6.23,-50.33 24.11,-70.55 17.87,-19.99 40.22,-30.93 66.79,-32.69 12,-0.95 25.75,0.23 41.39,3.76 30.58,6.82 56.33,21.28 77.5,43.39l-16.58 15.88c-28.69,-30.34 -62.21,-43.75 -100.54,-40.34 -20.7,1.41 -37.75,9.76 -51.27,25.17 -13.88,15.4 -20.11,33.27 -19.06,53.74 2.36,36.92 29.64,60.32 82.09,70.2 31.86,6 56.09,14.46 72.67,25.52 22.69,15.17 35.04,36.8 36.8,64.79 1.89,31.52 -7.52,56.68 -28.22,75.85 -18.11,16.7 -41.39,25.87 -69.97,27.52 -1.76,0.23 -4.11,0.35 -6.82,0.35z"/>
    <path id="_1_4" class="fil4 str5" d="M5550.6 5880.07c-43.04,0 -79.49,-15.88 -109.59,-47.51l16.58 -15.52c17.64,18.58 39.27,30.81 64.79,36.8 13.29,3.3 24.46,4.24 33.4,3.18 22.46,-1.41 40.69,-8.11 54.8,-19.99 16.22,-14.23 23.75,-33.99 22.34,-59.27 -1.41,-19.05 -8.94,-33.86 -22.7,-44.45 -14.11,-10.82 -36.8,-19.05 -68.2,-24.81 -63.85,-12.23 -97.37,-42.45 -100.31,-91.02 -1.88,-26.81 6.23,-50.33 24.11,-70.55 17.87,-19.99 40.22,-30.93 66.79,-32.69 12,-0.95 25.75,0.23 41.39,3.76 30.58,6.82 56.33,21.28 77.5,43.39l-16.58 15.88c-28.69,-30.34 -62.21,-43.75 -100.54,-40.34 -20.7,1.41 -37.75,9.76 -51.27,25.17 -13.88,15.4 -20.11,33.27 -19.06,53.74 2.36,36.92 29.64,60.32 82.09,70.2 31.86,6 56.09,14.46 72.67,25.52 22.69,15.17 35.04,36.8 36.8,64.79 1.89,31.52 -7.52,56.68 -28.22,75.85 -18.11,16.7 -41.39,25.87 -69.97,27.52 -1.76,0.23 -4.11,0.35 -6.82,0.35z"/>
    <path class="fil5" d="M6058.6 5888.54c-43.04,0 -79.49,-15.88 -109.59,-47.51l16.58 -15.52c17.64,18.58 39.27,30.81 64.79,36.8 13.29,3.3 24.46,4.24 33.4,3.18 22.46,-1.41 40.69,-8.11 54.8,-19.99 16.22,-14.23 23.75,-33.99 22.34,-59.27 -1.41,-19.05 -8.94,-33.86 -22.7,-44.45 -14.11,-10.82 -36.8,-19.05 -68.2,-24.81 -63.85,-12.23 -97.37,-42.45 -100.31,-91.02 -1.88,-26.81 6.23,-50.33 24.11,-70.55 17.87,-19.99 40.22,-30.93 66.79,-32.69 12,-0.95 25.75,0.23 41.39,3.76 30.58,6.82 56.33,21.28 77.5,43.39l-16.58 15.88c-28.69,-30.34 -62.21,-43.75 -100.54,-40.34 -20.7,1.41 -37.75,9.76 -51.27,25.17 -13.88,15.4 -20.11,33.27 -19.06,53.74 2.36,36.92 29.64,60.32 82.09,70.2 31.86,6 56.09,14.46 72.67,25.52 22.69,15.17 35.04,36.8 36.8,64.79 1.89,31.52 -7.52,56.68 -28.22,75.85 -18.11,16.7 -41.39,25.87 -69.97,27.52 -1.76,0.23 -4.11,0.35 -6.82,0.35z"/>
    <path id="_1_5" class="fil4 str5" d="M6058.6 5888.54c-43.04,0 -79.49,-15.88 -109.59,-47.51l16.58 -15.52c17.64,18.58 39.27,30.81 64.79,36.8 13.29,3.3 24.46,4.24 33.4,3.18 22.46,-1.41 40.69,-8.11 54.8,-19.99 16.22,-14.23 23.75,-33.99 22.34,-59.27 -1.41,-19.05 -8.94,-33.86 -22.7,-44.45 -14.11,-10.82 -36.8,-19.05 -68.2,-24.81 -63.85,-12.23 -97.37,-42.45 -100.31,-91.02 -1.88,-26.81 6.23,-50.33 24.11,-70.55 17.87,-19.99 40.22,-30.93 66.79,-32.69 12,-0.95 25.75,0.23 41.39,3.76 30.58,6.82 56.33,21.28 77.5,43.39l-16.58 15.88c-28.69,-30.34 -62.21,-43.75 -100.54,-40.34 -20.7,1.41 -37.75,9.76 -51.27,25.17 -13.88,15.4 -20.11,33.27 -19.06,53.74 2.36,36.92 29.64,60.32 82.09,70.2 31.86,6 56.09,14.46 72.67,25.52 22.69,15.17 35.04,36.8 36.8,64.79 1.89,31.52 -7.52,56.68 -28.22,75.85 -18.11,16.7 -41.39,25.87 -69.97,27.52 -1.76,0.23 -4.11,0.35 -6.82,0.35z"/>
    <line class="fil0 str6" x1="8212.66" y1="5706.51" x2="8619.06" y2= "5706.51" />
    <line class="fil0 str6" x1="838.2" y1="5706.51" x2="1244.6" y2= "5706.51" />
   </g>
  </g>
 </g>
</svg>
