<svg width="110" height="102" viewBox="0 0 110 102" fill="none" xmlns="http://www.w3.org/2000/svg">
<g id="Group">
<g id="Group_2">
<path id="Vector" d="M2.26246 101.973C3.51198 101.973 4.52492 100.96 4.52492 99.7103C4.52492 98.4608 3.51198 97.4479 2.26246 97.4479C1.01294 97.4479 0 98.4608 0 99.7103C0 100.96 1.01294 101.973 2.26246 101.973Z" fill="white"/>
<path id="Vector_2" d="M2.26246 82.4197C3.51198 82.4197 4.52492 81.4068 4.52492 80.1572C4.52492 78.9077 3.51198 77.8948 2.26246 77.8948C1.01294 77.8948 0 78.9077 0 80.1572C0 81.4068 1.01294 82.4197 2.26246 82.4197Z" fill="white"/>
<path id="Vector_3" d="M2.26246 62.8642C3.51198 62.8642 4.52492 61.8512 4.52492 60.6017C4.52492 59.3522 3.51198 58.3392 2.26246 58.3392C1.01294 58.3392 0 59.3522 0 60.6017C0 61.8512 1.01294 62.8642 2.26246 62.8642Z" fill="white"/>
<path id="Vector_4" d="M2.26246 43.4716C3.51198 43.4716 4.52492 42.4587 4.52492 41.2092C4.52492 39.9597 3.51198 38.9467 2.26246 38.9467C1.01294 38.9467 0 39.9597 0 41.2092C0 42.4587 1.01294 43.4716 2.26246 43.4716Z" fill="white"/>
<path id="Vector_5" d="M2.26246 23.9185C3.51198 23.9185 4.52492 22.9055 4.52492 21.656C4.52492 20.4065 3.51198 19.3936 2.26246 19.3936C1.01294 19.3936 0 20.4065 0 21.656C0 22.9055 1.01294 23.9185 2.26246 23.9185Z" fill="white"/>
<path id="Vector_6" d="M2.2649 4.52638C3.51442 4.52638 4.52736 3.51345 4.52736 2.26392C4.52736 1.0144 3.51442 0.00146484 2.2649 0.00146484C1.01538 0.00146484 0.00244141 1.0144 0.00244141 2.26392C0.00244141 3.51345 1.01538 4.52638 2.2649 4.52638Z" fill="white"/>
</g>
<g id="Group_3">
<path id="Vector_7" d="M106.985 101.971C108.235 101.971 109.248 100.958 109.248 99.7089C109.248 98.4594 108.235 97.4465 106.985 97.4465C105.736 97.4465 104.723 98.4594 104.723 99.7089C104.723 100.958 105.736 101.971 106.985 101.971Z" fill="white"/>
<path id="Vector_8" d="M106.985 82.4182C108.235 82.4182 109.248 81.4053 109.248 80.1558C109.248 78.9062 108.235 77.8933 106.985 77.8933C105.736 77.8933 104.723 78.9062 104.723 80.1558C104.723 81.4053 105.736 82.4182 106.985 82.4182Z" fill="white"/>
<path id="Vector_9" d="M106.985 62.8628C108.235 62.8628 109.248 61.8498 109.248 60.6003C109.248 59.3508 108.235 58.3378 106.985 58.3378C105.736 58.3378 104.723 59.3508 104.723 60.6003C104.723 61.8498 105.736 62.8628 106.985 62.8628Z" fill="white"/>
<path id="Vector_10" d="M106.985 43.4702C108.235 43.4702 109.248 42.4573 109.248 41.2078C109.248 39.9582 108.235 38.9453 106.985 38.9453C105.736 38.9453 104.723 39.9582 104.723 41.2078C104.723 42.4573 105.736 43.4702 106.985 43.4702Z" fill="white"/>
<path id="Vector_11" d="M106.985 23.917C108.235 23.917 109.248 22.9041 109.248 21.6545C109.248 20.405 108.235 19.3921 106.985 19.3921C105.736 19.3921 104.723 20.405 104.723 21.6545C104.723 22.9041 105.736 23.917 106.985 23.917Z" fill="white"/>
<path id="Vector_12" d="M106.986 4.52492C108.235 4.52492 109.248 3.51198 109.248 2.26246C109.248 1.01294 108.235 0 106.986 0C105.736 0 104.723 1.01294 104.723 2.26246C104.723 3.51198 105.736 4.52492 106.986 4.52492Z" fill="white"/>
</g>
<g id="Group_4">
<path id="Vector_13" d="M86.1383 101.971C87.3878 101.971 88.4008 100.958 88.4008 99.7089C88.4008 98.4594 87.3878 97.4465 86.1383 97.4465C84.8888 97.4465 83.8759 98.4594 83.8759 99.7089C83.8759 100.958 84.8888 101.971 86.1383 101.971Z" fill="white"/>
<path id="Vector_14" d="M86.1383 82.4182C87.3878 82.4182 88.4008 81.4053 88.4008 80.1558C88.4008 78.9062 87.3878 77.8933 86.1383 77.8933C84.8888 77.8933 83.8759 78.9062 83.8759 80.1558C83.8759 81.4053 84.8888 82.4182 86.1383 82.4182Z" fill="white"/>
<path id="Vector_15" d="M86.1383 62.8628C87.3878 62.8628 88.4008 61.8498 88.4008 60.6003C88.4008 59.3508 87.3878 58.3378 86.1383 58.3378C84.8888 58.3378 83.8759 59.3508 83.8759 60.6003C83.8759 61.8498 84.8888 62.8628 86.1383 62.8628Z" fill="white"/>
<path id="Vector_16" d="M86.1383 43.4702C87.3878 43.4702 88.4008 42.4573 88.4008 41.2078C88.4008 39.9582 87.3878 38.9453 86.1383 38.9453C84.8888 38.9453 83.8759 39.9582 83.8759 41.2078C83.8759 42.4573 84.8888 43.4702 86.1383 43.4702Z" fill="white"/>
<path id="Vector_17" d="M86.1383 23.917C87.3878 23.917 88.4008 22.9041 88.4008 21.6545C88.4008 20.405 87.3878 19.3921 86.1383 19.3921C84.8888 19.3921 83.8759 20.405 83.8759 21.6545C83.8759 22.9041 84.8888 23.917 86.1383 23.917Z" fill="white"/>
<path id="Vector_18" d="M86.1375 4.52492C87.387 4.52492 88.3999 3.51198 88.3999 2.26246C88.3999 1.01294 87.387 0 86.1375 0C84.8879 0 83.875 1.01294 83.875 2.26246C83.875 3.51198 84.8879 4.52492 86.1375 4.52492Z" fill="white"/>
</g>
<g id="Group_5">
<path id="Vector_19" d="M65.1299 101.971C66.3794 101.971 67.3923 100.958 67.3923 99.7089C67.3923 98.4594 66.3794 97.4465 65.1299 97.4465C63.8804 97.4465 62.8674 98.4594 62.8674 99.7089C62.8674 100.958 63.8804 101.971 65.1299 101.971Z" fill="white"/>
<path id="Vector_20" d="M65.1299 82.4182C66.3794 82.4182 67.3923 81.4053 67.3923 80.1558C67.3923 78.9062 66.3794 77.8933 65.1299 77.8933C63.8804 77.8933 62.8674 78.9062 62.8674 80.1558C62.8674 81.4053 63.8804 82.4182 65.1299 82.4182Z" fill="white"/>
<path id="Vector_21" d="M65.1299 62.8628C66.3794 62.8628 67.3923 61.8498 67.3923 60.6003C67.3923 59.3508 66.3794 58.3378 65.1299 58.3378C63.8804 58.3378 62.8674 59.3508 62.8674 60.6003C62.8674 61.8498 63.8804 62.8628 65.1299 62.8628Z" fill="white"/>
<path id="Vector_22" d="M65.1299 43.4702C66.3794 43.4702 67.3923 42.4573 67.3923 41.2078C67.3923 39.9582 66.3794 38.9453 65.1299 38.9453C63.8804 38.9453 62.8674 39.9582 62.8674 41.2078C62.8674 42.4573 63.8804 43.4702 65.1299 43.4702Z" fill="white"/>
<path id="Vector_23" d="M65.1299 23.917C66.3794 23.917 67.3923 22.9041 67.3923 21.6545C67.3923 20.405 66.3794 19.3921 65.1299 19.3921C63.8804 19.3921 62.8674 20.405 62.8674 21.6545C62.8674 22.9041 63.8804 23.917 65.1299 23.917Z" fill="white"/>
<path id="Vector_24" d="M65.1289 4.52492C66.3784 4.52492 67.3914 3.51198 67.3914 2.26246C67.3914 1.01294 66.3784 0 65.1289 0C63.8794 0 62.8665 1.01294 62.8665 2.26246C62.8665 3.51198 63.8794 4.52492 65.1289 4.52492Z" fill="white"/>
</g>
<g id="Group_6">
<path id="Vector_25" d="M44.1215 101.971C45.371 101.971 46.3839 100.958 46.3839 99.7089C46.3839 98.4594 45.371 97.4465 44.1215 97.4465C42.8719 97.4465 41.859 98.4594 41.859 99.7089C41.859 100.958 42.8719 101.971 44.1215 101.971Z" fill="white"/>
<path id="Vector_26" d="M44.1215 82.4182C45.371 82.4182 46.3839 81.4053 46.3839 80.1558C46.3839 78.9062 45.371 77.8933 44.1215 77.8933C42.8719 77.8933 41.859 78.9062 41.859 80.1558C41.859 81.4053 42.8719 82.4182 44.1215 82.4182Z" fill="white"/>
<path id="Vector_27" d="M44.1215 62.8628C45.371 62.8628 46.3839 61.8498 46.3839 60.6003C46.3839 59.3508 45.371 58.3378 44.1215 58.3378C42.8719 58.3378 41.859 59.3508 41.859 60.6003C41.859 61.8498 42.8719 62.8628 44.1215 62.8628Z" fill="white"/>
<path id="Vector_28" d="M44.1215 43.4702C45.371 43.4702 46.3839 42.4573 46.3839 41.2078C46.3839 39.9582 45.371 38.9453 44.1215 38.9453C42.8719 38.9453 41.859 39.9582 41.859 41.2078C41.859 42.4573 42.8719 43.4702 44.1215 43.4702Z" fill="white"/>
<path id="Vector_29" d="M44.1215 23.917C45.371 23.917 46.3839 22.9041 46.3839 21.6545C46.3839 20.405 45.371 19.3921 44.1215 19.3921C42.8719 19.3921 41.859 20.405 41.859 21.6545C41.859 22.9041 42.8719 23.917 44.1215 23.917Z" fill="white"/>
<path id="Vector_30" d="M44.1204 4.52492C45.3699 4.52492 46.3828 3.51198 46.3828 2.26246C46.3828 1.01294 45.3699 0 44.1204 0C42.8708 0 41.8579 1.01294 41.8579 2.26246C41.8579 3.51198 42.8708 4.52492 44.1204 4.52492Z" fill="white"/>
</g>
<g id="Group_7">
<path id="Vector_31" d="M23.1129 101.971C24.3624 101.971 25.3754 100.958 25.3754 99.7089C25.3754 98.4594 24.3624 97.4465 23.1129 97.4465C21.8634 97.4465 20.8505 98.4594 20.8505 99.7089C20.8505 100.958 21.8634 101.971 23.1129 101.971Z" fill="white"/>
<path id="Vector_32" d="M23.1129 82.4182C24.3624 82.4182 25.3754 81.4053 25.3754 80.1558C25.3754 78.9062 24.3624 77.8933 23.1129 77.8933C21.8634 77.8933 20.8505 78.9062 20.8505 80.1558C20.8505 81.4053 21.8634 82.4182 23.1129 82.4182Z" fill="white"/>
<path id="Vector_33" d="M23.1129 62.8628C24.3624 62.8628 25.3754 61.8498 25.3754 60.6003C25.3754 59.3508 24.3624 58.3378 23.1129 58.3378C21.8634 58.3378 20.8505 59.3508 20.8505 60.6003C20.8505 61.8498 21.8634 62.8628 23.1129 62.8628Z" fill="white"/>
<path id="Vector_34" d="M23.1129 43.4702C24.3624 43.4702 25.3754 42.4573 25.3754 41.2078C25.3754 39.9582 24.3624 38.9453 23.1129 38.9453C21.8634 38.9453 20.8505 39.9582 20.8505 41.2078C20.8505 42.4573 21.8634 43.4702 23.1129 43.4702Z" fill="white"/>
<path id="Vector_35" d="M23.1129 23.917C24.3624 23.917 25.3754 22.9041 25.3754 21.6545C25.3754 20.405 24.3624 19.3921 23.1129 19.3921C21.8634 19.3921 20.8505 20.405 20.8505 21.6545C20.8505 22.9041 21.8634 23.917 23.1129 23.917Z" fill="white"/>
<path id="Vector_36" d="M23.1118 4.52492C24.3613 4.52492 25.3743 3.51198 25.3743 2.26246C25.3743 1.01294 24.3613 0 23.1118 0C21.8623 0 20.8494 1.01294 20.8494 2.26246C20.8494 3.51198 21.8623 4.52492 23.1118 4.52492Z" fill="white"/>
</g>
</g>
</svg>
