<svg width="60" height="56" viewBox="0 0 60 56" fill="none" xmlns="http://www.w3.org/2000/svg">
<g id="Group">
<g id="Group_2">
<path id="Vector" d="M1.24246 56.0001C1.92866 56.0001 2.48493 55.4438 2.48493 54.7576C2.48493 54.0714 1.92866 53.5151 1.24246 53.5151C0.55627 53.5151 0 54.0714 0 54.7576C0 55.4438 0.55627 56.0001 1.24246 56.0001Z" fill="white"/>
<path id="Vector_2" d="M1.24246 45.2622C1.92866 45.2622 2.48493 44.7059 2.48493 44.0197C2.48493 43.3335 1.92866 42.7772 1.24246 42.7772C0.55627 42.7772 0 43.3335 0 44.0197C0 44.7059 0.55627 45.2622 1.24246 45.2622Z" fill="white"/>
<path id="Vector_3" d="M1.24246 34.5229C1.92866 34.5229 2.48493 33.9666 2.48493 33.2804C2.48493 32.5942 1.92866 32.038 1.24246 32.038C0.55627 32.038 0 32.5942 0 33.2804C0 33.9666 0.55627 34.5229 1.24246 34.5229Z" fill="white"/>
<path id="Vector_4" d="M1.24246 23.8732C1.92866 23.8732 2.48493 23.317 2.48493 22.6308C2.48493 21.9446 1.92866 21.3883 1.24246 21.3883C0.55627 21.3883 0 21.9446 0 22.6308C0 23.317 0.55627 23.8732 1.24246 23.8732Z" fill="white"/>
<path id="Vector_5" d="M1.24246 13.1353C1.92866 13.1353 2.48493 12.579 2.48493 11.8929C2.48493 11.2067 1.92866 10.6504 1.24246 10.6504C0.55627 10.6504 0 11.2067 0 11.8929C0 12.579 0.55627 13.1353 1.24246 13.1353Z" fill="white"/>
<path id="Vector_6" d="M1.24381 2.48578C1.93 2.48578 2.48627 1.92951 2.48627 1.24332C2.48627 0.557125 1.93 0.000854492 1.24381 0.000854492C0.557613 0.000854492 0.00134277 0.557125 0.00134277 1.24332C0.00134277 1.92951 0.557613 2.48578 1.24381 2.48578Z" fill="white"/>
</g>
<g id="Group_3">
<path id="Vector_7" d="M58.7527 55.9992C59.4389 55.9992 59.9952 55.4429 59.9952 54.7567C59.9952 54.0706 59.4389 53.5143 58.7527 53.5143C58.0665 53.5143 57.5103 54.0706 57.5103 54.7567C57.5103 55.4429 58.0665 55.9992 58.7527 55.9992Z" fill="white"/>
<path id="Vector_8" d="M58.7527 45.2613C59.4389 45.2613 59.9952 44.705 59.9952 44.0188C59.9952 43.3326 59.4389 42.7764 58.7527 42.7764C58.0665 42.7764 57.5103 43.3326 57.5103 44.0188C57.5103 44.705 58.0665 45.2613 58.7527 45.2613Z" fill="white"/>
<path id="Vector_9" d="M58.7527 34.522C59.4389 34.522 59.9952 33.9658 59.9952 33.2796C59.9952 32.5934 59.4389 32.0371 58.7527 32.0371C58.0665 32.0371 57.5103 32.5934 57.5103 33.2796C57.5103 33.9658 58.0665 34.522 58.7527 34.522Z" fill="white"/>
<path id="Vector_10" d="M58.7527 23.8724C59.4389 23.8724 59.9952 23.3161 59.9952 22.6299C59.9952 21.9437 59.4389 21.3875 58.7527 21.3875C58.0665 21.3875 57.5103 21.9437 57.5103 22.6299C57.5103 23.3161 58.0665 23.8724 58.7527 23.8724Z" fill="white"/>
<path id="Vector_11" d="M58.7527 13.1345C59.4389 13.1345 59.9952 12.5782 59.9952 11.892C59.9952 11.2058 59.4389 10.6495 58.7527 10.6495C58.0665 10.6495 57.5103 11.2058 57.5103 11.892C57.5103 12.5782 58.0665 13.1345 58.7527 13.1345Z" fill="white"/>
<path id="Vector_12" d="M58.753 2.48493C59.4392 2.48493 59.9954 1.92866 59.9954 1.24246C59.9954 0.55627 59.4392 0 58.753 0C58.0668 0 57.5105 0.55627 57.5105 1.24246C57.5105 1.92866 58.0668 2.48493 58.753 2.48493Z" fill="white"/>
</g>
<g id="Group_4">
<path id="Vector_13" d="M47.3042 55.9992C47.9904 55.9992 48.5467 55.4429 48.5467 54.7567C48.5467 54.0706 47.9904 53.5143 47.3042 53.5143C46.618 53.5143 46.0618 54.0706 46.0618 54.7567C46.0618 55.4429 46.618 55.9992 47.3042 55.9992Z" fill="white"/>
<path id="Vector_14" d="M47.3042 45.2613C47.9904 45.2613 48.5467 44.705 48.5467 44.0188C48.5467 43.3326 47.9904 42.7764 47.3042 42.7764C46.618 42.7764 46.0618 43.3326 46.0618 44.0188C46.0618 44.705 46.618 45.2613 47.3042 45.2613Z" fill="white"/>
<path id="Vector_15" d="M47.3042 34.522C47.9904 34.522 48.5467 33.9658 48.5467 33.2796C48.5467 32.5934 47.9904 32.0371 47.3042 32.0371C46.618 32.0371 46.0618 32.5934 46.0618 33.2796C46.0618 33.9658 46.618 34.522 47.3042 34.522Z" fill="white"/>
<path id="Vector_16" d="M47.3042 23.8724C47.9904 23.8724 48.5467 23.3161 48.5467 22.6299C48.5467 21.9437 47.9904 21.3875 47.3042 21.3875C46.618 21.3875 46.0618 21.9437 46.0618 22.6299C46.0618 23.3161 46.618 23.8724 47.3042 23.8724Z" fill="white"/>
<path id="Vector_17" d="M47.3042 13.1345C47.9904 13.1345 48.5467 12.5782 48.5467 11.892C48.5467 11.2058 47.9904 10.6495 47.3042 10.6495C46.618 10.6495 46.0618 11.2058 46.0618 11.892C46.0618 12.5782 46.618 13.1345 47.3042 13.1345Z" fill="white"/>
<path id="Vector_18" d="M47.3037 2.48493C47.9899 2.48493 48.5462 1.92866 48.5462 1.24246C48.5462 0.55627 47.9899 0 47.3037 0C46.6175 0 46.0613 0.55627 46.0613 1.24246C46.0613 1.92866 46.6175 2.48493 47.3037 2.48493Z" fill="white"/>
</g>
<g id="Group_5">
<path id="Vector_19" d="M35.7671 55.9992C36.4533 55.9992 37.0096 55.4429 37.0096 54.7567C37.0096 54.0706 36.4533 53.5143 35.7671 53.5143C35.0809 53.5143 34.5247 54.0706 34.5247 54.7567C34.5247 55.4429 35.0809 55.9992 35.7671 55.9992Z" fill="white"/>
<path id="Vector_20" d="M35.7671 45.2613C36.4533 45.2613 37.0096 44.705 37.0096 44.0188C37.0096 43.3326 36.4533 42.7764 35.7671 42.7764C35.0809 42.7764 34.5247 43.3326 34.5247 44.0188C34.5247 44.705 35.0809 45.2613 35.7671 45.2613Z" fill="white"/>
<path id="Vector_21" d="M35.7671 34.522C36.4533 34.522 37.0096 33.9658 37.0096 33.2796C37.0096 32.5934 36.4533 32.0371 35.7671 32.0371C35.0809 32.0371 34.5247 32.5934 34.5247 33.2796C34.5247 33.9658 35.0809 34.522 35.7671 34.522Z" fill="white"/>
<path id="Vector_22" d="M35.7671 23.8724C36.4533 23.8724 37.0096 23.3161 37.0096 22.6299C37.0096 21.9437 36.4533 21.3875 35.7671 21.3875C35.0809 21.3875 34.5247 21.9437 34.5247 22.6299C34.5247 23.3161 35.0809 23.8724 35.7671 23.8724Z" fill="white"/>
<path id="Vector_23" d="M35.7671 13.1345C36.4533 13.1345 37.0096 12.5782 37.0096 11.892C37.0096 11.2058 36.4533 10.6495 35.7671 10.6495C35.0809 10.6495 34.5247 11.2058 34.5247 11.892C34.5247 12.5782 35.0809 13.1345 35.7671 13.1345Z" fill="white"/>
<path id="Vector_24" d="M35.7666 2.48493C36.4528 2.48493 37.0091 1.92866 37.0091 1.24246C37.0091 0.55627 36.4528 0 35.7666 0C35.0804 0 34.5242 0.55627 34.5242 1.24246C34.5242 1.92866 35.0804 2.48493 35.7666 2.48493Z" fill="white"/>
</g>
<g id="Group_6">
<path id="Vector_25" d="M24.23 55.9992C24.9162 55.9992 25.4725 55.4429 25.4725 54.7567C25.4725 54.0706 24.9162 53.5143 24.23 53.5143C23.5438 53.5143 22.9875 54.0706 22.9875 54.7567C22.9875 55.4429 23.5438 55.9992 24.23 55.9992Z" fill="white"/>
<path id="Vector_26" d="M24.23 45.2613C24.9162 45.2613 25.4725 44.705 25.4725 44.0188C25.4725 43.3326 24.9162 42.7764 24.23 42.7764C23.5438 42.7764 22.9875 43.3326 22.9875 44.0188C22.9875 44.705 23.5438 45.2613 24.23 45.2613Z" fill="white"/>
<path id="Vector_27" d="M24.23 34.522C24.9162 34.522 25.4725 33.9658 25.4725 33.2796C25.4725 32.5934 24.9162 32.0371 24.23 32.0371C23.5438 32.0371 22.9875 32.5934 22.9875 33.2796C22.9875 33.9658 23.5438 34.522 24.23 34.522Z" fill="white"/>
<path id="Vector_28" d="M24.23 23.8724C24.9162 23.8724 25.4725 23.3161 25.4725 22.6299C25.4725 21.9437 24.9162 21.3875 24.23 21.3875C23.5438 21.3875 22.9875 21.9437 22.9875 22.6299C22.9875 23.3161 23.5438 23.8724 24.23 23.8724Z" fill="white"/>
<path id="Vector_29" d="M24.23 13.1345C24.9162 13.1345 25.4725 12.5782 25.4725 11.892C25.4725 11.2058 24.9162 10.6495 24.23 10.6495C23.5438 10.6495 22.9875 11.2058 22.9875 11.892C22.9875 12.5782 23.5438 13.1345 24.23 13.1345Z" fill="white"/>
<path id="Vector_30" d="M24.2294 2.48493C24.9156 2.48493 25.4719 1.92866 25.4719 1.24246C25.4719 0.55627 24.9156 0 24.2294 0C23.5432 0 22.9869 0.55627 22.9869 1.24246C22.9869 1.92866 23.5432 2.48493 24.2294 2.48493Z" fill="white"/>
</g>
<g id="Group_7">
<path id="Vector_31" d="M12.6929 55.9992C13.3791 55.9992 13.9354 55.4429 13.9354 54.7567C13.9354 54.0706 13.3791 53.5143 12.6929 53.5143C12.0067 53.5143 11.4504 54.0706 11.4504 54.7567C11.4504 55.4429 12.0067 55.9992 12.6929 55.9992Z" fill="white"/>
<path id="Vector_32" d="M12.6929 45.2613C13.3791 45.2613 13.9354 44.705 13.9354 44.0188C13.9354 43.3326 13.3791 42.7764 12.6929 42.7764C12.0067 42.7764 11.4504 43.3326 11.4504 44.0188C11.4504 44.705 12.0067 45.2613 12.6929 45.2613Z" fill="white"/>
<path id="Vector_33" d="M12.6929 34.522C13.3791 34.522 13.9354 33.9658 13.9354 33.2796C13.9354 32.5934 13.3791 32.0371 12.6929 32.0371C12.0067 32.0371 11.4504 32.5934 11.4504 33.2796C11.4504 33.9658 12.0067 34.522 12.6929 34.522Z" fill="white"/>
<path id="Vector_34" d="M12.6929 23.8724C13.3791 23.8724 13.9354 23.3161 13.9354 22.6299C13.9354 21.9437 13.3791 21.3875 12.6929 21.3875C12.0067 21.3875 11.4504 21.9437 11.4504 22.6299C11.4504 23.3161 12.0067 23.8724 12.6929 23.8724Z" fill="white"/>
<path id="Vector_35" d="M12.6929 13.1345C13.3791 13.1345 13.9354 12.5782 13.9354 11.892C13.9354 11.2058 13.3791 10.6495 12.6929 10.6495C12.0067 10.6495 11.4504 11.2058 11.4504 11.892C11.4504 12.5782 12.0067 13.1345 12.6929 13.1345Z" fill="white"/>
<path id="Vector_36" d="M12.6923 2.48493C13.3785 2.48493 13.9348 1.92866 13.9348 1.24246C13.9348 0.55627 13.3785 0 12.6923 0C12.0061 0 11.4498 0.55627 11.4498 1.24246C11.4498 1.92866 12.0061 2.48493 12.6923 2.48493Z" fill="white"/>
</g>
</g>
</svg>
