<svg version="1.2" xmlns="http://www.w3.org/2000/svg" viewBox="0 0 2808 2832" width="2808" height="2832">
	<title>11667347_20946028-ai</title>
	<defs>
		<linearGradient id="g1" x1="71" y1="43.3" x2="2871" y2="43.3" gradientUnits="userSpaceOnUse">
			<stop offset="0" stop-color="#dae3fe"/>
			<stop offset="1" stop-color="#e9effd"/>
		</linearGradient>
		<linearGradient id="g2" x1="236.7" y1="662.3" x2="399.9" y2="662.3" gradientUnits="userSpaceOnUse">
			<stop offset="0" stop-color="#dae3fe"/>
			<stop offset="1" stop-color="#e9effd"/>
		</linearGradient>
		<linearGradient id="g3" x1="672.5" y1="175.7" x2="830.2" y2="175.7" gradientUnits="userSpaceOnUse">
			<stop offset="0" stop-color="#dae3fe"/>
			<stop offset="1" stop-color="#e9effd"/>
		</linearGradient>
		<linearGradient id="g4" x1="278.5" y1="-364.8" x2="-4181.8" y2="2695.5" gradientUnits="userSpaceOnUse">
			<stop offset="0" stop-color="#09005d"/>
			<stop offset="1" stop-color="#1a0f91"/>
		</linearGradient>
		<linearGradient id="g5" x1="1950" y1="-337.1" x2="1957.5" y2="114.7" gradientUnits="userSpaceOnUse">
			<stop offset="0" stop-color="#4f52ff"/>
			<stop offset="1" stop-color="#4042e2"/>
		</linearGradient>
		<linearGradient id="g6" x1="846.3" y1="1905.8" x2="2006.7" y2="1905.8" gradientUnits="userSpaceOnUse">
			<stop offset="0" stop-color="#09005d"/>
			<stop offset="1" stop-color="#1a0f91"/>
		</linearGradient>
		<linearGradient id="g7" x1="1672" y1="1906.7" x2="1722.9" y2="2881.4" gradientUnits="userSpaceOnUse">
			<stop offset="0" stop-color="#ffd900"/>
			<stop offset=".326" stop-color="#ffd900"/>
			<stop offset="1" stop-color="#395eb4"/>
		</linearGradient>
		<linearGradient id="g8" x1="2864.2" y1="2538.4" x2="2462.6" y2="2979.3" gradientUnits="userSpaceOnUse">
			<stop offset="0" stop-color="#4f52ff"/>
			<stop offset="1" stop-color="#4042e2"/>
		</linearGradient>
		<linearGradient id="g9" x1="2134.9" y1="2479.7" x2="3217.8" y2="1409.5" gradientUnits="userSpaceOnUse">
			<stop offset="0" stop-color="#e1473d"/>
			<stop offset="1" stop-color="#e9605a"/>
		</linearGradient>
		<linearGradient id="g10" x1="479.3" y1="2046.9" x2="629.1" y2="2046.9" gradientUnits="userSpaceOnUse">
			<stop offset="0" stop-color="#ff928e"/>
			<stop offset="1" stop-color="#fe7062"/>
		</linearGradient>
		<linearGradient id="g11" x1="2680.5" y1="972.5" x2="2244.9" y2="1502.8" gradientUnits="userSpaceOnUse">
			<stop offset="0" stop-color="#ff928e"/>
			<stop offset="1" stop-color="#fe7062"/>
		</linearGradient>
		<linearGradient id="g12" x1="1331.3" y1="2310" x2="1471.6" y2="2169.6" gradientUnits="userSpaceOnUse">
			<stop offset="0" stop-color="#e1473d"/>
			<stop offset="1" stop-color="#e9605a"/>
		</linearGradient>
		<linearGradient id="g13" x1="668.6" y1="2335.4" x2="1128.3" y2="2335.4" gradientUnits="userSpaceOnUse">
			<stop offset="0" stop-color="#09005d"/>
			<stop offset="1" stop-color="#1a0f91"/>
		</linearGradient>
		<linearGradient id="g14" x1="1370.3" y1="2284.7" x2="670.1" y2="3431.9" gradientUnits="userSpaceOnUse">
			<stop offset="0" stop-color="#4f52ff"/>
			<stop offset="1" stop-color="#4042e2"/>
		</linearGradient>
		<linearGradient id="g15" x1="2024.2" y1="2335.4" x2="2483.9" y2="2335.4" gradientUnits="userSpaceOnUse">
			<stop offset="0" stop-color="#09005d"/>
			<stop offset="1" stop-color="#1a0f91"/>
		</linearGradient>
		<linearGradient id="g16" x1="2747.7" y1="2227.7" x2="2050.8" y2="3417.9" gradientUnits="userSpaceOnUse">
			<stop offset="0" stop-color="#4f52ff"/>
			<stop offset="1" stop-color="#4042e2"/>
		</linearGradient>
		<linearGradient id="g17" x1="468.8" y1="1320.8" x2="397.5" y2="2018.7" gradientUnits="userSpaceOnUse">
			<stop offset="0" stop-color="#febbba"/>
			<stop offset="1" stop-color="#ff928e"/>
		</linearGradient>
		<linearGradient id="g18" x1="759.2" y1="1607.5" x2="683.6" y2="2346.8" gradientUnits="userSpaceOnUse">
			<stop offset="0" stop-color="#febbba"/>
			<stop offset="1" stop-color="#ff928e"/>
		</linearGradient>
		<linearGradient id="g19" x1="-4421.4" y1="-9542.2" x2="-4341.9" y2="-9358" gradientUnits="userSpaceOnUse">
			<stop offset="0" stop-color="#ff928e"/>
			<stop offset="1" stop-color="#fe7062"/>
		</linearGradient>
		<linearGradient id="g20" x1="1136.2" y1="1372.9" x2="596.8" y2="2090.5" gradientUnits="userSpaceOnUse">
			<stop offset="0" stop-color="#febbba"/>
			<stop offset="1" stop-color="#ff928e"/>
		</linearGradient>
		<linearGradient id="g21" x1="498.4" y1="1303.6" x2="940.7" y2="1303.6" gradientUnits="userSpaceOnUse">
			<stop offset="0" stop-color="#dae3fe"/>
			<stop offset="1" stop-color="#e9effd"/>
		</linearGradient>
		<linearGradient id="g22" x1="601.5" y1="803.3" x2="1236.9" y2="803.3" gradientUnits="userSpaceOnUse">
			<stop offset="0" stop-color="#dae3fe"/>
			<stop offset="1" stop-color="#e9effd"/>
		</linearGradient>
		<linearGradient id="g23" x1="1184.2" y1="1508.6" x2="-399.1" y2="5294.3" gradientUnits="userSpaceOnUse">
			<stop offset="0" stop-color="#4f52ff"/>
			<stop offset="1" stop-color="#4042e2"/>
		</linearGradient>
		<linearGradient id="g24" x1="3384.9" y1="2330.6" x2="2143.1" y2="5299.7" gradientUnits="userSpaceOnUse">
			<stop offset="0" stop-color="#4f52ff"/>
			<stop offset="1" stop-color="#4042e2"/>
		</linearGradient>
		<linearGradient id="g25" x1="539.2" y1="1282.9" x2="1006" y2="1762.6" gradientUnits="userSpaceOnUse">
			<stop offset="0" stop-color="#febbba"/>
			<stop offset="1" stop-color="#ff928e"/>
		</linearGradient>
		<linearGradient id="g26" x1="408.4" y1="2423.5" x2="420.8" y2="2868.5" gradientUnits="userSpaceOnUse">
			<stop offset="0" stop-color="#020039"/>
			<stop offset="1" stop-color="#090056"/>
		</linearGradient>
		<linearGradient id="g27" x1="635.9" y1="2599.3" x2="179.1" y2="2972.1" gradientUnits="userSpaceOnUse">
			<stop offset="0" stop-color="#4f52ff"/>
			<stop offset="1" stop-color="#4042e2"/>
		</linearGradient>
		<linearGradient id="g28" x1="397.5" y1="2613.6" x2="377.3" y2="2824.4" gradientUnits="userSpaceOnUse">
			<stop offset="0" stop-color="#febbba"/>
			<stop offset="1" stop-color="#ff928e"/>
		</linearGradient>
		<linearGradient id="g29" x1="705.6" y1="2703.1" x2="261.6" y2="3065.5" gradientUnits="userSpaceOnUse">
			<stop offset="0" stop-color="#4f52ff"/>
			<stop offset="1" stop-color="#4042e2"/>
		</linearGradient>
		<linearGradient id="g30" x1="600.4" y1="2417.8" x2="612.8" y2="2863.5" gradientUnits="userSpaceOnUse">
			<stop offset="0" stop-color="#020039"/>
			<stop offset="1" stop-color="#090056"/>
		</linearGradient>
		<linearGradient id="g31" x1="600.2" y1="2636.2" x2="580.6" y2="2842.2" gradientUnits="userSpaceOnUse">
			<stop offset="0" stop-color="#febbba"/>
			<stop offset="1" stop-color="#ff928e"/>
		</linearGradient>
		<linearGradient id="g32" x1="1813.9" y1="1560.5" x2="1356.7" y2="3205.2" gradientUnits="userSpaceOnUse">
			<stop offset="0" stop-color="#09005d"/>
			<stop offset="1" stop-color="#1a0f91"/>
		</linearGradient>
		<linearGradient id="g33" x1="546" y1="1505.1" x2="544.4" y2="1520.4" gradientUnits="userSpaceOnUse">
			<stop offset="0" stop-color="#fdf53f"/>
			<stop offset=".665" stop-color="#e57a58"/>
			<stop offset="1" stop-color="#d93c65"/>
		</linearGradient>
		<linearGradient id="g34" x1="-5539.2" y1="-11103.9" x2="-5447.6" y2="-10891.6" gradientUnits="userSpaceOnUse">
			<stop offset="0" stop-color="#ff928e"/>
			<stop offset="1" stop-color="#fe7062"/>
		</linearGradient>
		<linearGradient id="g35" x1="451.9" y1="1342.2" x2="363.9" y2="1757.7" gradientUnits="userSpaceOnUse">
			<stop offset="0" stop-color="#febbba"/>
			<stop offset="1" stop-color="#ff928e"/>
		</linearGradient>
		<linearGradient id="g36" x1="213" y1="1354" x2="319.4" y2="1182.7" gradientUnits="userSpaceOnUse">
			<stop offset="0" stop-color="#febbba"/>
			<stop offset="1" stop-color="#ff928e"/>
		</linearGradient>
		<linearGradient id="g37" x1="940.5" y1="736.6" x2="853.8" y2="866.6" gradientUnits="userSpaceOnUse">
			<stop offset="0" stop-color="#09005d"/>
			<stop offset="1" stop-color="#1a0f91"/>
		</linearGradient>
		<linearGradient id="g38" x1="286.4" y1="1606.3" x2="271.5" y2="1365.6" gradientUnits="userSpaceOnUse">
			<stop offset="0" stop-color="#febbba"/>
			<stop offset="1" stop-color="#ff928e"/>
		</linearGradient>
		<linearGradient id="g39" x1="672.4" y1="1595.3" x2="475.6" y2="1973.7" gradientUnits="userSpaceOnUse">
			<stop offset="0" stop-color="#e1473d"/>
			<stop offset="1" stop-color="#e9605a"/>
		</linearGradient>
		<linearGradient id="g40" x1="3841.9" y1="-2270.4" x2="717.2" y2="1703.5" gradientUnits="userSpaceOnUse">
			<stop offset="0" stop-color="#09005d"/>
			<stop offset="1" stop-color="#1a0f91"/>
		</linearGradient>
		<linearGradient id="g41" x1="743.4" y1="1390.1" x2="219.5" y2="3145.3" gradientUnits="userSpaceOnUse">
			<stop offset="0" stop-color="#09005d"/>
			<stop offset="1" stop-color="#1a0f91"/>
		</linearGradient>
		<linearGradient id="g42" x1="523.7" y1="1335.9" x2="-28" y2="3184.5" gradientUnits="userSpaceOnUse">
			<stop offset="0" stop-color="#09005d"/>
			<stop offset="1" stop-color="#1a0f91"/>
		</linearGradient>
		<linearGradient id="g43" x1="735.1" y1="1435.8" x2="254.1" y2="3047.5" gradientUnits="userSpaceOnUse">
			<stop offset="0" stop-color="#09005d"/>
			<stop offset="1" stop-color="#1a0f91"/>
		</linearGradient>
		<linearGradient id="g44" x1="107.3" y1="1142.8" x2="1014.3" y2="2146.2" gradientUnits="userSpaceOnUse">
			<stop offset="0" stop-color="#09005d"/>
			<stop offset="1" stop-color="#1a0f91"/>
		</linearGradient>
		<linearGradient id="g45" x1="470.5" y1="1226.3" x2="317.9" y2="1252.7" gradientUnits="userSpaceOnUse">
			<stop offset="0" stop-color="#09005d"/>
			<stop offset="1" stop-color="#1a0f91"/>
		</linearGradient>
		<linearGradient id="g46" x1="1766.5" y1="626.4" x2="1766.5" y2="-221.2" gradientUnits="userSpaceOnUse">
			<stop offset="0" stop-color="#ff928e"/>
			<stop offset="1" stop-color="#fe7062"/>
		</linearGradient>
		<linearGradient id="g47" x1="1806.1" y1="626.3" x2="1806.1" y2="-221.8" gradientUnits="userSpaceOnUse">
			<stop offset="0" stop-color="#e5a700"/>
			<stop offset="1" stop-color="#fe7062"/>
		</linearGradient>
		<linearGradient id="g48" x1="1365" y1="-336.1" x2="1515.4" y2="628" gradientUnits="userSpaceOnUse">
			<stop offset="0" stop-color="#ff928e"/>
			<stop offset="1" stop-color="#fe7062"/>
		</linearGradient>
	</defs>
	<style>
		.s0 { fill: url(#g1) } 
		.s1 { fill: #91b3fa } 
		.s2 { fill: #7d97f4 } 
		.s3 { fill: url(#g2) } 
		.s4 { fill: #bdd0fb } 
		.s5 { fill: url(#g3) } 
		.s6 { fill: #f0f0f0 } 
		.s7 { fill: url(#g4) } 
		.s8 { opacity: .5;fill: url(#g5) } 
		.s9 { fill: #ffffff } 
		.s10 { fill: url(#g6) } 
		.s11 { fill: url(#g7) } 
		.s12 { fill: url(#g8) } 
		.s13 { fill: url(#g9) } 
		.s14 { fill: url(#g10) } 
		.s15 { fill: url(#g11) } 
		.s16 { fill: url(#g12) } 
		.s17 { fill: url(#g13) } 
		.s18 { opacity: .5;fill: url(#g14) } 
		.s19 { fill: url(#g15) } 
		.s20 { opacity: .5;fill: url(#g16) } 
		.s21 { opacity: .7;fill: #ffffff } 
		.s22 { fill: url(#g17) } 
		.s23 { fill: url(#g18) } 
		.s24 { fill: url(#g19) } 
		.s25 { fill: url(#g20) } 
		.s26 { fill: url(#g21) } 
		.s27 { fill: url(#g22) } 
		.s28 { fill: url(#g23) } 
		.s29 { fill: url(#g24) } 
		.s30 { fill: url(#g25) } 
		.s31 { fill: url(#g26) } 
		.s32 { fill: url(#g27) } 
		.s33 { fill: url(#g28) } 
		.s34 { fill: url(#g29) } 
		.s35 { fill: url(#g30) } 
		.s36 { fill: url(#g31) } 
		.s37 { fill: url(#g32) } 
		.s38 { fill: url(#g33) } 
		.s39 { fill: url(#g34) } 
		.s40 { fill: url(#g35) } 
		.s41 { fill: url(#g36) } 
		.s42 { fill: url(#g37) } 
		.s43 { fill: url(#g38) } 
		.s44 { fill: url(#g39) } 
		.s45 { fill: url(#g40) } 
		.s46 { fill: url(#g41) } 
		.s47 { fill: url(#g42) } 
		.s48 { fill: url(#g43) } 
		.s49 { fill: url(#g44) } 
		.s50 { fill: url(#g45) } 
		.s51 { fill: url(#g46) } 
		.s52 { fill: url(#g47) } 
		.s53 { opacity: .8;fill: #ffffff } 
		.s54 { fill: url(#g48) } 
	</style>
	<g id="_Artboards_">
	</g>
	<g id="Illustration">
		<g id="&lt;Group&gt;">
			<path id="&lt;Path&gt;" class="s0" d="m380.4 2482.1c57.2 59.6 91.9 116.4 140.3 136.6 620 258.8 1139.9 187.1 1266.2 161.7 186.6-37.6 547.1-110.1 807.8-413.8 394.4-459.5 333-1183.5 27.1-1661.3-56-87.5-351.6-572.6-952.3-650.4-363.6-47.1-787.4 47.9-1094.3 302.6-644.2 534.8-628 1672.8-194.8 2124.6z"/>
			<g id="&lt;Group&gt;">
				<path id="&lt;Path&gt;" class="s1" d="m720.3 2392.5c229.2-52.6 392.2-395.7 308-543-56.9-99.4-189.7-44.9-275.6-155-109.6-140.6 42.6-312.1 1.6-596.4-34.8-242-200.9-505.6-340.3-496.7-146 9.4-302.4 319.9-239.1 547.8 41.2 148.1 153.8 184.2 147.4 310.4-7.4 146.4-162.8 173.6-198.6 308.1-64.3 241.7 293.4 694.5 596.6 624.8z"/>
				<path id="&lt;Path&gt;" class="s2" d="m587.3 2456.7c1.2 0.3 2.5 0.3 3.8 0.1 4.6-1 7.6-5.4 6.7-10-124.1-621-36.2-1281-35.3-1287.6 0.7-4.6-2.6-8.9-7.2-9.6-4.7-0.6-9 2.7-9.6 7.3-0.9 6.6-89.2 669.5 35.4 1293.2 0.7 3.3 3.2 5.8 6.2 6.6z"/>
				<path id="&lt;Path&gt;" class="s3" d="m309.9 1270.3c0.8 0.2 1.8 0.2 2.6-0.2 2.1-0.9 3-3.3 2.1-5.3-56.2-130.4-107.4-317.6-32-469.1 44.9-90.3 114.3-125.3 115-125.7 2-1 2.8-3.4 1.8-5.4-1-2-3.4-2.9-5.4-1.9-2.9 1.5-72.6 36.7-118.7 129.4-42.4 85.1-71.3 236.8 31.9 475.9 0.5 1.2 1.5 2 2.7 2.3z"/>
			</g>
			<g id="&lt;Group&gt;">
				<path id="&lt;Path&gt;" class="s4" d="m1243.5 1982.6c239.1-65.4 395.8-433.8 300.8-585.1-64.2-102.3-201.8-39.1-297-151.4-121.5-143.2 31.3-330.4-24.2-628-47.2-253.3-233.5-523.7-379.9-508.2-153.3 16.2-304.5 350-228 587.2 49.8 154.2 170 187.3 168.7 320.4-1.4 154.6-163.9 190-195.7 333.2-57.3 257.2 339.1 718.4 655.3 631.9z"/>
				<path id="&lt;Path&gt;" class="s1" d="m1106.3 2055.9c1.3 0.3 2.6 0.3 4 0 4.8-1.2 7.8-6 6.6-10.8-157.7-648.5-93.7-1347.3-93.1-1354.3 0.5-4.9-3.1-9.3-8-9.8-5-0.4-9.3 3.2-9.8 8.1-0.7 7-64.9 708.8 93.5 1360.2 0.8 3.4 3.5 5.9 6.8 6.6z"/>
				<path id="&lt;Path&gt;" class="s5" d="m763.5 818c-1.2 0-2.4-0.7-3-1.9-52.5-109-81.7-210.3-87.1-301.3-4.2-73 6.8-139.5 32.8-197.7 44.4-99.3 118.3-140.6 119-141 1.6-0.9 3.7-0.2 4.6 1.4 0.9 1.6 0.3 3.7-1.4 4.6-0.7 0.4-72.8 40.7-116.2 138.1-40.1 90-63.2 248.6 54.4 492.9 0.8 1.7 0.1 3.7-1.6 4.5q-0.7 0.4-1.5 0.4z"/>
				<path id="&lt;Path&gt;" class="s6" d="m1274.9 1934.8c-0.9 0-1.8-0.4-2.5-1.1-1.2-1.3-1.2-3.5 0.2-4.8 98.3-92.8 167.6-179.1 205.8-256.3 31-62.6 41.8-119.5 32.2-169.3-19.1-98.5-113-136.4-113.9-136.8-1.7-0.7-2.6-2.7-1.9-4.4 0.7-1.7 2.6-2.6 4.4-1.9 0.9 0.4 98.3 39.7 118 141.8 22.3 115.1-58.4 260.4-240 431.8-0.6 0.7-1.5 1-2.3 1z"/>
			</g>
			<g id="&lt;Group&gt;">
				<g id="&lt;Group&gt;">
					<path id="&lt;Path&gt;" class="s7" d="m1170.1 2625.5c0.6 53 46.1 96 101.8 96.1l1345.4 2.9c56.1 0.2 102.6-42.8 104-96l62.6-2506c1.5-59.6-45.5-107.8-105-107.5l-1428.2 6.8c-59.1 0.3-106.5 48.7-105.9 108.1z"/>
					<path id="&lt;Path&gt;" class="s2" d="m1291.4 274.5c-0.4-57.3 46.6-104 104.9-104.2l1133.6-5c58.7-0.3 105.3 46.2 104.1 103.7l-46.6 2130.7c-1.2 52.1-47.3 94.3-103.1 94.2l-1076.9-1.7c-55.5-0.1-100.7-42.2-101.1-94.3z"/>
					<path id="&lt;Path&gt;" class="s8" d="m1792.3 89.2c0 11.1 8.9 20 20 20l295-1.3c11.1-0.1 20.1-9.1 20.3-20.3 0.1-11.1-8.8-20.1-19.9-20l-295.3 1.3c-11.1 0.1-20.1 9.2-20.1 20.3z"/>
				</g>
				<g id="&lt;Group&gt;" style="opacity: .3">
					<path id="&lt;Path&gt;" class="s9" d="m1533.6 1785.8l-169.9-168.7 6.3 355.9 163.2-186.8z"/>
					<path id="&lt;Path&gt;" class="s9" d="m1615.7 1867.3l-240.2 275-2.4 2.9 6.9 217.9c0.6 20.9 11.7 41 29.5 55.9 15.6 13 35.8 21 57.1 22.8l339.3-385.5z"/>
					<path id="&lt;Path&gt;" class="s9" d="m1414.3 1507.1l194 193.4 81.8 81.6 190.3 189.6 312.8-355.2-0.1-0.1-189.5-192.1h0.5l1.1-0.5v-0.1l-82.6-82.7-0.8 0.1-0.2 0.1-0.1-0.1-0.2-0.1-194-196.5-386.8-391.2 14.6 641.7z"/>
					<path id="&lt;Path&gt;" class="s9" d="m1616.2 2442.2l578.9 0.4-308.6-306.3z"/>
					<path id="&lt;Path&gt;" class="s9" d="m1960.9 2052.1l391.9 390.7h35.8c23.9 0 47-8 64.4-22.5 17.4-14.4 27.6-34.1 28.4-54.6l16.3-440.6-224-227z"/>
					<path id="&lt;Path&gt;" class="s9" d="m2349.3 1612.4l153.9 156.8 12.5-345-166.3 188.2z"/>
					<path id="&lt;Path&gt;" class="s9" d="m1720.6 972.5l311.1-361.7-327.7-339.1-270.5-1.7c-57.6-0.4-102.6 45.2-101.2 102.2l5.2 210.3z"/>
					<path id="&lt;Path&gt;" class="s9" d="m2319.9 275.7l-450-2.9 238.9 248.3z"/>
					<path id="&lt;Path&gt;" class="s9" d="m2114.3 696.3l-310.9 360.3 193.8 197.3 81.6 83.1 187 193.2 250.7-288.4 8.2-118.1 0.7-0.7z"/>
					<path id="&lt;Path&gt;" class="s9" d="m2474.7 278.8l-283.2 328.1 341.9 355.1 21.5-580.2c1.9-50.4-32.6-92.9-80.2-103z"/>
				</g>
				<g id="&lt;Group&gt;">
					<path id="&lt;Path&gt;" class="s9" d="m1958.6 397.8c0 8.7 7 15.8 15.8 15.8h493.3c8.7 0 15.8-7.1 15.8-15.8v-0.1c0-8.7-7.1-15.8-15.8-15.8h-493.3c-8.8 0-15.8 7.1-15.8 15.8z"/>
					<path id="&lt;Path&gt;" class="s9" d="m1958.6 483.7c0 8.8 7 15.8 15.8 15.8h493.3c8.7 0 15.8-7 15.8-15.8 0-8.8-7.1-15.8-15.8-15.8h-493.3c-8.8 0-15.8 7-15.8 15.8z"/>
					<path id="&lt;Path&gt;" class="s9" d="m1958.6 569.7c0 8.7 7 15.8 15.8 15.8h493.3c8.7 0 15.8-7.1 15.8-15.8v-0.1c0-8.7-7.1-15.8-15.8-15.8h-493.3c-8.8 0-15.8 7.1-15.8 15.8z"/>
				</g>
				<path id="&lt;Compound Path&gt;" class="s9" d="m1522.3 2480.3c-2.8 0-5.7-1.1-7.9-3.1-4.9-4.4-5.2-11.9-0.9-16.7l22.7-25.1c4.4-4.8 11.9-5.2 16.7-0.8 4.9 4.4 5.3 11.9 0.9 16.7l-22.7 25.1c-2.4 2.5-5.6 3.9-8.8 3.9zm56.7-62.7c-2.8 0-5.6-1-7.9-3-4.8-4.4-5.2-11.9-0.8-16.7l22.7-25.1c4.3-4.8 11.8-5.2 16.7-0.8 4.8 4.4 5.2 11.9 0.8 16.7l-22.7 25.1c-2.3 2.5-5.5 3.8-8.8 3.8zm56.8-62.6c-2.9 0-5.7-1-8-3-4.8-4.4-5.2-11.9-0.8-16.7l22.7-25.1c4.4-4.8 11.9-5.2 16.7-0.8 4.8 4.4 5.2 11.9 0.8 16.7l-22.7 25.1c-2.3 2.5-5.5 3.8-8.7 3.8zm56.7-62.6c-2.8 0-5.7-1-7.9-3-4.9-4.4-5.3-11.9-0.9-16.7l22.7-25.1c4.4-4.8 11.9-5.2 16.7-0.8 4.9 4.4 5.2 11.9 0.9 16.7l-22.7 25c-2.4 2.6-5.6 3.9-8.8 3.9zm56.7-62.6c-2.8 0-5.7-1-7.9-3-4.9-4.4-5.2-11.9-0.8-16.7l22.7-25.1c4.3-4.8 11.8-5.2 16.7-0.8 4.8 4.4 5.2 11.9 0.8 16.7l-22.7 25c-2.3 2.6-5.6 3.9-8.8 3.9zm56.8-62.6c-2.9 0-5.7-1-8-3-4.8-4.4-5.2-11.9-0.8-16.7l22.7-25.1c4.4-4.8 11.8-5.2 16.7-0.8 4.8 4.4 5.2 11.8 0.8 16.7l-22.7 25c-2.3 2.6-5.5 3.9-8.7 3.9zm56.7-62.6c-2.9 0-5.7-1-8-3-4.8-4.4-5.2-11.9-0.8-16.8l22.7-25c4.4-4.8 11.9-5.2 16.7-0.8 4.9 4.4 5.2 11.8 0.8 16.7l-22.7 25c-2.3 2.6-5.5 3.9-8.7 3.9zm56.7-62.6c-2.8 0-5.7-1-7.9-3.1-4.9-4.3-5.2-11.8-0.9-16.7l22.7-25c4.4-4.8 11.9-5.2 16.7-0.8 4.9 4.4 5.3 11.8 0.9 16.7l-22.7 25c-2.4 2.6-5.6 3.9-8.8 3.9zm56.7-62.6c-2.8 0-5.6-1-7.9-3.1-4.8-4.3-5.2-11.8-0.8-16.7l22.7-25c4.4-4.9 11.8-5.2 16.7-0.8 4.8 4.3 5.2 11.8 0.8 16.7l-22.7 25c-2.3 2.6-5.5 3.9-8.8 3.9zm56.8-62.6c-2.9 0-5.7-1-8-3.1-4.8-4.4-5.2-11.8-0.8-16.7l22.7-25c4.4-4.9 11.9-5.2 16.7-0.8 4.8 4.3 5.2 11.8 0.8 16.7l-22.7 25c-2.3 2.6-5.5 3.9-8.7 3.9zm56.7-62.6c-2.8 0-5.7-1-7.9-3.1-4.9-4.4-5.3-11.8-0.9-16.7l22.7-25c4.4-4.9 11.9-5.2 16.7-0.9 4.9 4.4 5.2 11.9 0.9 16.8l-22.7 25c-2.4 2.6-5.6 3.9-8.8 3.9zm56.7-62.6c-2.8 0-5.6-1-7.9-3.1-4.9-4.4-5.2-11.8-0.8-16.7l22.7-25c4.3-4.9 11.8-5.2 16.7-0.9 4.8 4.4 5.2 11.9 0.8 16.7l-22.7 25.1c-2.3 2.6-5.5 3.9-8.8 3.9zm56.8-62.6c-2.9 0-5.7-1-8-3.1-4.8-4.4-5.2-11.9-0.8-16.7l22.7-25c4.4-4.9 11.8-5.3 16.7-0.9 4.8 4.4 5.2 11.9 0.8 16.7l-22.7 25.1c-2.3 2.6-5.5 3.9-8.7 3.9zm48.2-67.9q-1.1 0-2.2-0.2c-6.4-1.2-10.6-7.4-9.4-13.8 0.6-3.4 0.9-6.8 0.9-10.3 0-5.8-0.9-11.6-2.7-17.2-2.1-6.2 1.3-12.9 7.5-14.9 6.2-2 12.9 1.3 15 7.5 2.6 8 3.9 16.3 3.9 24.7 0 4.9-0.5 9.8-1.4 14.6-1 5.7-6 9.6-11.6 9.6zm-31.9-73.7c-3.1 0-6.2-1.2-8.5-3.7l-23.4-24.3c-4.6-4.7-4.4-12.2 0.3-16.7 4.7-4.6 12.2-4.4 16.7 0.3l23.4 24.4c4.6 4.7 4.4 12.2-0.3 16.7-2.3 2.2-5.2 3.3-8.2 3.3zm-58.5-60.9c-3.1 0-6.2-1.3-8.6-3.7l-23.4-24.4c-4.5-4.7-4.3-12.2 0.4-16.7 4.7-4.5 12.2-4.4 16.7 0.4l23.4 24.3c4.5 4.7 4.4 12.2-0.3 16.8-2.3 2.2-5.3 3.3-8.2 3.3zm-58.6-61c-3.1 0-6.2-1.2-8.5-3.6l-23.4-24.4c-4.5-4.7-4.4-12.2 0.3-16.7 4.7-4.5 12.2-4.4 16.8 0.3l23.4 24.4c4.5 4.7 4.4 12.2-0.4 16.7-2.3 2.2-5.2 3.3-8.2 3.3zm-58.5-60.9c-3.1 0-6.2-1.2-8.5-3.6l-23.4-24.4c-4.6-4.7-4.4-12.2 0.3-16.7 4.7-4.6 12.2-4.4 16.7 0.3l23.4 24.4c4.6 4.7 4.4 12.2-0.3 16.7-2.3 2.2-5.2 3.3-8.2 3.3zm-58.5-60.9c-3.1 0-6.2-1.2-8.5-3.7l-23.5-24.3c-4.5-4.7-4.3-12.2 0.4-16.8 4.7-4.5 12.2-4.3 16.7 0.4l23.4 24.3c4.5 4.8 4.4 12.2-0.3 16.8-2.3 2.2-5.3 3.3-8.2 3.3zm-58.5-61c-3.1 0-6.3-1.2-8.6-3.6l-23.4-24.4c-4.5-4.7-4.4-12.2 0.4-16.7 4.7-4.5 12.1-4.4 16.7 0.3l23.4 24.4c4.5 4.7 4.4 12.2-0.3 16.7-2.3 2.2-5.3 3.3-8.2 3.3zm-58.6-60.9c-3.1 0-6.2-1.2-8.5-3.6l-23.4-24.4c-4.5-4.7-4.4-12.2 0.3-16.7 4.7-4.5 12.2-4.4 16.7 0.3l23.5 24.4c4.5 4.7 4.3 12.2-0.4 16.7-2.3 2.2-5.2 3.3-8.2 3.3zm-58.5-60.9c-3.1 0-6.2-1.2-8.5-3.6l-23.4-24.4c-4.6-4.7-4.4-12.2 0.3-16.7 4.7-4.6 12.2-4.4 16.7 0.3l23.4 24.4c4.6 4.7 4.4 12.2-0.3 16.7-2.3 2.2-5.3 3.3-8.2 3.3zm-58.5-60.9c-3.1 0-6.2-1.3-8.6-3.7l-23.4-24.3c-4.5-4.8-4.3-12.2 0.4-16.8 4.7-4.5 12.2-4.3 16.7 0.4l23.4 24.3c4.5 4.7 4.4 12.2-0.3 16.8-2.3 2.2-5.3 3.3-8.2 3.3zm-58.6-61c-3.1 0-6.2-1.2-8.5-3.6l-23.4-24.4c-4.5-4.7-4.4-12.2 0.3-16.7 4.7-4.5 12.2-4.4 16.8 0.3l23.4 24.4c4.5 4.7 4.3 12.2-0.4 16.7-2.3 2.2-5.2 3.3-8.2 3.3zm-58.5-60.9c-3.1 0-6.2-1.2-8.5-3.6l-23.4-24.4c-4.6-4.7-4.4-12.2 0.3-16.7 4.7-4.5 12.2-4.4 16.7 0.3l23.4 24.4c4.6 4.7 4.4 12.2-0.3 16.7-2.3 2.2-5.2 3.3-8.2 3.3zm-58.5-60.9c-3.1 0-6.2-1.2-8.6-3.7l-23.4-24.3c-4.5-4.7-4.3-12.2 0.4-16.7 4.7-4.6 12.2-4.4 16.7 0.3l23.4 24.4c4.5 4.7 4.4 12.2-0.3 16.7-2.3 2.2-5.3 3.3-8.2 3.3zm-58.4-61.1c-3.4 0-6.8-1.5-9.2-4.4-8.3-10.3-14-22.7-16.3-35.8-1.1-6.5 3.2-12.6 9.6-13.7 6.5-1.1 12.6 3.1 13.7 9.6 1.6 9.1 5.6 17.8 11.4 25 4.1 5.1 3.3 12.5-1.7 16.7-2.2 1.7-4.9 2.6-7.5 2.6zm-3.9-78.9c-2.2 0-4.5-0.7-6.5-2-5.4-3.6-7-10.9-3.4-16.3 2-3 4.2-5.9 6.5-8.6l16.2-18.6c4.3-4.9 11.8-5.4 16.7-1.2 4.9 4.3 5.4 11.8 1.2 16.7l-16.2 18.6q-2.5 2.9-4.6 6c-2.3 3.5-6 5.4-9.9 5.4z"/>
			</g>
			<g id="&lt;Group&gt;">
				<path id="&lt;Path&gt;" class="s10" d="m925.4 1992.5l-69 55.4c-19.2 15.4-9.1 48.3 14.8 48.1l1135.5-6.6-307.4-183.6h-530.8c-87.6 0-172.8 30.4-243.1 86.7z"/>
				<path id="&lt;Path&gt;" class="s11" d="m2616.7 2486.5c-1-9.3-2-18.7-3-27.9-10.5-94.8-58.9-179.8-132.5-232.7l-5.7-4.1c-88.6-63.8-190.5-103-296.5-114.2l-172.3-18.2-1135.5 6.6c-23.9 0.2-34-32.7-14.8-48.1l69-55.4c70.3-56.3 155.5-86.7 243.1-86.7h530.8l-3.9-1.8c-31.9-14.4-66.2-21.7-100.7-21.7h-500c-30.3 0-60.5 4.9-89.6 14.5l-376 150.1c-18.6 6.2-35.2 17.9-47.8 33.8l-77.7 97.3c-16.2 20.2-25.1 46.1-25.1 72.8v158.5c0 41.9 137.5 185.3 137.5 185.3 15 8.2 31.6 12.5 48.4 12.5h1689.2l179.4-12.6c51.4-3.6 89.6-52.9 83.7-108z"/>
				<path id="&lt;Path&gt;" class="s12" d="m2610.7 2558.3h-5.3c-10.5 0-19-9.2-19-20.5v-102.6c0-11.3 8.5-20.4 19-20.4 10 0 18.3 8.4 18.9 19.3l5.3 102.6c0.7 11.7-8 21.6-18.9 21.6z"/>
				<path id="&lt;Path&gt;" class="s13" d="m2544.1 2395.1h56.4c-21-68.6-62.6-128.5-119.3-169.2l-5.7-4.1q-8.8-6.4-17.8-12.4c11.5 43.3 25.7 102.7 35 142.6 6 25.4 27.1 43.1 51.4 43.1z"/>
				<path id="&lt;Path&gt;" class="s14" d="m629.1 2164.3v-117.4c-18.6 6.2-35.2 17.9-47.8 33.8l-77.7 97.3c-13.5 16.9-21.9 37.7-24.3 59.7l106.1-18.1c25.2-4.3 43.7-27.8 43.7-55.3z"/>
				<path id="&lt;Path&gt;" class="s15" d="m1820.2 2084.2l-40-41.9c-16.6-17.4-37.5-29.3-60.3-34.3l-78.9-17.1c-21.7-4.7-42.4 11.6-44.8 35.4l-0.6 5.5c-2.4 24.2 15.3 45.2 37.8 44.9l101.7-1.2c14.2-0.2 27.1 8.8 32.7 22.9l1.9 4.7c2.5 6.2 8.2 10.3 14.5 10.3h25c14.1 0 21.1-18.6 11-29.2z"/>
				<path id="&lt;Path&gt;" class="s16" d="m1411.1 2160h174.1c13.6 0 23.2 14.6 18.5 28.3-8 23.3-27 52.9-72.1 56.4-40.5 3.1-91.7-21.7-130.2-45.2-17.5-10.7-10.4-39.5 9.7-39.5z"/>
				<path id="&lt;Path&gt;" class="s17" d="m1128.3 2565.3c0 126.9-102.9 229.8-229.8 229.8-127 0-229.9-102.9-229.9-229.8 0-127 102.9-229.9 229.9-229.9 126.9 0 229.8 102.9 229.8 229.9z"/>
				<path id="&lt;Path&gt;" class="s18" d="m1085.1 2565.3c0 103.1-83.6 186.6-186.6 186.6-103.1 0-186.7-83.5-186.7-186.6 0-103.1 83.6-186.7 186.7-186.7 103 0 186.6 83.6 186.6 186.7z"/>
				<path id="&lt;Path&gt;" class="s19" d="m2483.9 2565.3c0 126.9-102.9 229.8-229.8 229.8-127 0-229.9-102.9-229.9-229.8 0-127 102.9-229.9 229.9-229.9 126.9 0 229.8 102.9 229.8 229.9z"/>
				<path id="&lt;Path&gt;" class="s20" d="m2440.7 2565.3c0 103.1-83.5 186.6-186.6 186.6-103.1 0-186.7-83.5-186.7-186.6 0-103.1 83.6-186.7 186.7-186.7 103.1 0 186.6 83.6 186.6 186.7z"/>
				<path id="&lt;Path&gt;" class="s1" d="m2406.3 2632.8q-0.6 0-1.2-0.3c-1.6-0.6-2.4-2.5-1.7-4.2 8.5-19.9 12.7-41.2 12.7-63 0-89.4-72.7-162.1-162-162.1-27.8 0-55.1 7.1-79.1 20.6-1.6 0.9-3.5 0.3-4.4-1.2-0.9-1.6-0.3-3.5 1.2-4.4 25-14 53.5-21.4 82.3-21.4 92.9 0 168.4 75.6 168.4 168.5 0 22.7-4.4 44.8-13.2 65.5-0.5 1.3-1.7 2-3 2z"/>
				<path id="&lt;Path&gt;" class="s1" d="m1055.2 2632.8q-0.6 0-1.2-0.3c-1.6-0.6-2.4-2.5-1.7-4.2 8.4-19.9 12.7-41.2 12.7-63 0-89.4-72.7-162.1-162-162.1-27.8 0-55.1 7.1-79.2 20.6-1.5 0.9-3.4 0.3-4.3-1.2-0.9-1.6-0.3-3.5 1.2-4.4 25-14 53.4-21.4 82.3-21.4 92.9 0 168.4 75.6 168.4 168.5 0 22.7-4.4 44.8-13.2 65.5-0.5 1.3-1.7 2-3 2z"/>
				<path id="&lt;Path&gt;" class="s21" d="m1176.6 2494.4c-1.5 0-2.9-1.1-3.2-2.6-20.4-107.4-81.6-175.7-181.8-203.1-75.1-20.6-145.1-9.1-145.8-9-1.8 0.3-3.4-0.9-3.7-2.6-0.3-1.8 0.9-3.4 2.6-3.7 0.7-0.1 71.9-11.8 148.3 9 70.8 19.3 160.6 71.1 186.7 208.2 0.3 1.7-0.8 3.4-2.5 3.7q-0.3 0.1-0.6 0.1z"/>
				<path id="&lt;Path&gt;" class="s21" d="m1973.3 2529.4c-1.7 0-3.1-1.4-3.2-3.1-2.6-84.7 20.1-151 67.5-197.2 78.2-76.2 198.3-70.1 199.5-70 1.8 0.1 3.1 1.6 3 3.4-0.1 1.7-1.5 3-3.3 3-1.2-0.1-118.6-6-194.8 68.2-46 44.9-68.1 109.6-65.5 192.4 0.1 1.8-1.3 3.3-3.1 3.3q0 0-0.1 0z"/>
				<path id="&lt;Path&gt;" class="s1" d="m878.5 2071.5c-1.1 0-2.2-0.6-2.8-1.6-0.9-1.6-0.3-3.5 1.2-4.4l154-87.6c43.8-24.9 93.5-38.6 143.9-39.5l176.6-3.1c1.7 0 3.2 1.3 3.3 3.1 0 1.8-1.4 3.2-3.2 3.3l-176.6 3.1c-49.3 0.9-98 14.3-140.9 38.7l-153.9 87.6q-0.8 0.4-1.6 0.4z"/>
			</g>
			<g id="&lt;Group&gt;">
				<path id="&lt;Path&gt;" class="s22" d="m200.4 1848.2c-10.2-27.2-14.6-59.5-7.9-97.2-41.2-7.1-79.7-21.9-113.5-45.3-4 58 11.4 122.1 64.8 185.6 25.9 30.8 60.8 61.6 106.8 91.4l13.5 28.9 40.7-50.7c0 0-75.4-35.7-104.4-112.7z"/>
				<g id="&lt;Group&gt;">
					<path id="&lt;Path&gt;" class="s23" d="m772.8 1595.8c-41.7 7.3-78.3 1.9-110.5-10.1-0.9 7.2-2.1 14.4-3.7 21.6-7.1 31.7-16.8 62.4-30.4 90.8 62.5 9.2 118.9-8.9 161-30.6 0.6-29.3-7.4-53.7-16.4-71.7z"/>
					<path id="&lt;Path&gt;" class="s24" d="m662.3 1585.7c-54.2-20.1-96.4-58.6-131-85.8-73-57.5-128.4-27.8-128.4-27.8l79.5 150.4c49.7 46.8 99.4 68.7 145.8 75.6 13.6-28.4 23.3-59.1 30.4-90.8 1.6-7.2 2.8-14.4 3.7-21.6z"/>
					<path id="&lt;Path&gt;" class="s25" d="m929 1523.4l-36.8 21.5c-44 29-83.7 44.6-119.4 50.9 9 18 17 42.4 16.4 71.7 46.7-24 75.7-52.3 75.7-52.3 83.2-53.7 64.1-91.8 64.1-91.8z"/>
				</g>
				<g id="&lt;Group&gt;">
					<path id="&lt;Compound Path&gt;" fill-rule="evenodd" class="s26" d="m512.1 2563.8l300.2-1260.2 128.4 24.7-190.4 1281.4q-0.6 4.3-1.4 8.6l-8.3 42.8c-14.2 73.6-65.9 125.5-115.5 115.9l-59-11.4c-49.6-9.6-78.3-76.9-64.1-150.5l8.3-42.9q0.8-4.2 1.8-8.4zm98.8 128.4c32.9 6.3 68.2-33.4 78.9-88.8 10.7-55.4-7.3-105.4-40.2-111.8-32.9-6.3-68.3 33.4-78.9 88.8-10.7 55.4 7.3 105.4 40.2 111.8z"/>
					<path id="&lt;Path&gt;" class="s27" d="m831.3 856.8l-48 248.7c-3.4 17.7 1.6 36 13.5 49.5l61.2 69.3c17.5 19.8 46.1 25.3 69.7 13.4l82.6-41.5c16.1-8.1 27.6-23.2 31-40.9l48-248.7c7.2-37.6 55.6-49.6 78.9-19.4 55.9 72.4 81.5 169.2 62.4 268.1-34.5 178.9-197.7 275-369.8 241.8-172-33.2-287.8-183.1-253.2-362 19.1-99 78.9-179.3 157.6-225.7 32.9-19.4 73.3 9.9 66.1 47.4z"/>
					<path id="&lt;Path&gt;" class="s28" d="m854.7 861.3l-48 248.7c-3.4 17.7 1.6 36 13.6 49.5l61.2 69.3c17.5 19.8 46.1 25.3 69.6 13.4l82.7-41.5c16.1-8.1 27.5-23.2 30.9-40.9l48-248.7c7.3-37.5 55.6-49.6 79-19.4 55.8 72.4 81.4 169.2 62.3 268.2-34.5 178.8-197.7 274.9-369.7 241.7-172.1-33.2-287.8-183.1-253.3-362 19.1-99 78.9-179.3 157.7-225.7 32.9-19.3 73.3 9.9 66 47.4z"/>
					<path id="&lt;Compound Path&gt;" fill-rule="evenodd" class="s29" d="m530.8 2567.4l300.2-1260.2 128.4 24.8-190.4 1281.3q-0.6 4.3-1.4 8.6l-8.3 42.8c-14.2 73.6-65.9 125.5-115.5 115.9l-59-11.4c-49.6-9.6-78.3-76.9-64.1-150.5l8.3-42.9q0.8-4.2 1.8-8.4zm98.8 128.4c32.9 6.3 68.2-33.4 78.9-88.8 10.7-55.4-7.3-105.4-40.2-111.8-32.9-6.3-68.3 33.4-79 88.8-10.6 55.4 7.4 105.4 40.3 111.8z"/>
				</g>
				<path id="&lt;Path&gt;" class="s30" d="m933.8 1578.9c1.3-8-1-16.2-6.3-22.3-10.4-12-28.2-28.4-41.2-17.3-19.2 16.4 1.9 72.6 1.9 72.6l21.4 32.6 0.3 20.9c11.5-13.6 18.4-46.9 23.9-86.5z"/>
				<path id="&lt;Path&gt;" class="s31" d="m441.1 2790.2c-0.1-0.9-0.1-1.8-0.4-2.7-14.5-53.2-82-85.3-82-85.3l-26.5 2.6c-14.3 47.4-11.8 76.3-9.1 89.1q0.1 0.5 0.3 1c21.9 1.6 66.9 2 117.7-4.7z"/>
				<path id="&lt;Path&gt;" class="s32" d="m323.4 2794.9c1.2 4.3 4.5 7.6 8.5 8.4 31.3 5.9 80.6-0.3 101.3-3.4 4.6-0.7 7.9-5 7.9-9.7-50.8 6.7-95.8 6.3-117.7 4.7z"/>
				<path id="&lt;Path&gt;" class="s33" d="m320.8 2665.5l12.3 53.9c0.9 3.9 4 6.8 7.7 7.1 4.5 0.3 10.9 0.5 17.3-0.6 5.8-1 9.7-6.9 8.6-13.2l-8.7-47.9z"/>
				<path id="&lt;Path&gt;" class="s34" d="m555.9 2790c-29.3-0.3-44.5-3.4-52.4-6.5 0.1 2.9 0.1 5.9 0.3 9 0.1 3.2 2.6 5.8 5.6 5.7l160.8-4c5.1-0.2 8-6.2 5.7-10.8-21.1 2.1-74.7 7-120 6.6z"/>
				<path id="&lt;Path&gt;" class="s35" d="m675.9 2783.4c-0.2-0.4-0.4-0.9-0.7-1.2-14.6-19.6-51.5-58.4-123.3-74.2l-34.3-0.5c0 0-14.7 26.9-14.1 76 7.9 3.1 23.1 6.2 52.4 6.5 45.3 0.4 98.9-4.5 120-6.6z"/>
				<path id="&lt;Path&gt;" class="s36" d="m510.3 2655.7c0.4 2.6 5.9 41.3 8 56.3 0.5 3.6 3.1 6.3 6.4 6.6 5.8 0.6 15.3 1.1 23.5-0.8 4.5-1 7.6-5.3 7.5-10.3l-1.1-60.9z"/>
				<path id="&lt;Path&gt;" class="s37" d="m466.3 1925.9c0 0 95.3 395.6 101.3 791.1 0.1 7.2-55.1 13.6-56.3 7-12.9-67.8-97.8-509.3-136.9-570.7 0 0 0.9 389 12.2 565.9 0.3 4.4-49.7 18.8-60.2 7.5 0 0-70.5-430.5-73.3-700.7-0.2-13.9 24.9-100.1 24.9-100.1z"/>
				<path id="&lt;Path&gt;" class="s38" d="m536.8 1505.1c-5.9-7.6 1.5 15.3 0 0z"/>
				<path id="&lt;Path&gt;" class="s39" d="m536.8 1505.1c-0.1-1.4-0.4-3.2-0.7-5.3-104.2-72.3-258.4-31.8-318.2-23.1-19.6 2.8-37.3 12.8-50 28.1-30.5 36.6-82.7 111.6-88.9 200.9 33.8 23.4 72.3 38.2 113.5 45.3 3.5-19.2 9.8-39.9 19.8-62.1q1.7 7.7 4.2 15.2c44.9 133.4 68.4 209.6 68.8 235.4 0 3.5 205.7-5 169.2-6.1-15.2-0.5 70.9-304.3 115.9-358.2 2.7-3.2-39.5-77.7-33.6-70.1z"/>
				<path id="&lt;Path&gt;" class="s40" d="m312.3 1367l-8.7 110c0 0 62.1 17.4 106.5-15.1l-33.5-99.2z"/>
				<g id="&lt;Group&gt;">
					<path id="&lt;Path&gt;" class="s41" d="m381.6 1240.4c1.5 1.4 65 120.6 65 120.6l-68.8 34.8-76.9-104c0 0 55.4-74.3 80.7-51.4z"/>
					<path id="&lt;Path&gt;" class="s42" d="m358.5 1266c-15.5 2.2-23.6 19.3-26.9 28.2-1.2 3.2-0.8 6.8 1 9.7l35.8 57q0.8 1.3 1.9 2.4c4.2 3.7 18.5 14.6 29.1-0.8 9.1-13.1 17.6-25 26.8-30.1 5.4-2.9 12.2-0.8 15.1 4.7 5.9 11.2 17.4 34 24.7 55.7 1.9 5.5-0.9 11.4-6.1 13.7-14 5.9-41.6 16.8-66.2 20.6-4 0.7-8.1-1-10.5-4.2-10.9-14.4-41.6-54.4-52-64.4-9.6-9.3-27.1-5.4-34.9-2.9-3 0.9-6.2 0.5-8.9-1-8.1-4.7-22.3-16.4-9.9-37 3.1-5.1 1.4-11.8-3.7-15-9-5.7-18.9-16.5-10-34.6 11.2-22.8 43.1-20.6 60.9-37.4 8.9-8.3 17.5-17.5 29-21.3 2.4-0.9 5-1.4 7.6-1.4 11.2 0.2 28.3 18.8 29 30 1.1 16-18.4 26.1-31.8 28.1z"/>
					<path id="&lt;Path&gt;" class="s43" d="m344.6 1379.5c0 0-14-38.8-31.1-37-17 1.7-30.1 19-8.6 37.7 26.8 23.2 39.7-0.7 39.7-0.7z"/>
				</g>
				<path id="&lt;Path&gt;" class="s44" d="m206.5 1679c-23.6-61.1-16.9-135.5-16.8-136.3l6.2 0.6c-0.1 0.8-6.7 73.8 16.4 133.5z"/>
				<path id="&lt;Path&gt;" class="s45" d="m371.2 2145.3c-1.4 0.1-2.6-0.9-3-2.3-7.4-26.3-59.3-54.4-59.8-54.6-1.5-0.9-2.1-2.7-1.3-4.3 0.8-1.5 2.7-2.1 4.2-1.2 2.3 1.2 54.8 29.6 62.9 58.5 0.4 1.6-0.5 3.3-2.2 3.8q-0.4 0.1-0.8 0.1z"/>
				<path id="&lt;Path&gt;" class="s46" d="m223.2 1727.8l76.8-115.6c0.5-0.8 1.4-1.3 2.4-1.3h140.5c2.3 0 4.5 1.2 5.6 3.2l66.8 113c1.2 1.9 1.6 4.2 1.2 6.5-26.5 80.2-52 159.2-50.2 197.6-47.9 37.5-132.1 29.6-189.6 12.4-3-50.1-27.7-129-54.5-210.8-0.3-1.7 0.1-3.5 1-5z"/>
				<path id="&lt;Path&gt;" class="s47" d="m249.3 1472.6l51.6 148.2h31l-45.9-154.3c-0.4-1.6-2-2.5-3.5-2.2l-32.3 6.7c-0.7 0.1-1.2 0.9-0.9 1.6z"/>
				<path id="&lt;Path&gt;" class="s48" d="m425.9 1462.2l-12.6 154.5 28.6 3.5 24.4-154.1c0.2-1.1-0.7-2.1-1.8-2.2l-36.7-3.4c-0.9-0.1-1.8 0.7-1.9 1.7z"/>
				<g id="&lt;Group&gt;">
					<path id="&lt;Path&gt;" class="s49" d="m420.9 1248.1c-61.2-115.7-219.9-10.6-146.1 86.8 54.9-36.5 117-90.8 146.1-86.8z"/>
					<path id="&lt;Path&gt;" class="s50" d="m416.9 1235.6c123.8-6.3 21.9 39.6-90.9 64.1 28.1-29.8 56.2-52 90.9-64.1z"/>
				</g>
			</g>
			<g id="&lt;Group&gt;">
				<g id="&lt;Group&gt;">
					<g id="&lt;Group&gt;">
						<path id="&lt;Path&gt;" class="s51" d="m1583.1 413.3c-101.4 0-183.4-82-183.4-183.5 0-101.4 82-183.4 183.4-183.4 101.5 0 183.4 82 183.4 183.4 0 101.5-81.9 183.5-183.4 183.5z"/>
						<path id="&lt;Path&gt;" class="s52" d="m1400 214.1h183.1 183.4c0 0 14.7 104.8-149.1 383.6-7.1 12.2-20.2 21-34.3 21-14.1 0-27.2-9.4-34.3-21.6-163.7-278.9-148.8-383-148.8-383z"/>
					</g>
					<g id="&lt;Group&gt;">
						<path id="&lt;Compound Path&gt;" fill-rule="evenodd" class="s9" d="m1544.9 604c-94.1-160.2-130-262.3-143-319.9-5-17.2-7.6-35-7.6-53.1l0.1-0.6c-0.2-5.5 0.1-8.8 0.3-10.1 5.5-99.4 88.3-177.1 188.4-177.1 98.8 0 180.8 76.6 188.2 175.2l0.5 2.9c0.1 0.6 1 6.3-0.2 19.9-0.6 13.4-2.7 26.3-6.2 39.5-12.6 57.7-47.7 160.6-143.4 323.6-7.8 13.3-22.1 21.6-37.6 22.1v-0.3c-20.3 0-31.5-8.3-39.5-22.1zm39.5 22.4h-1.3q0.7 0 1.3 0zm176.8-398.8l-0.3-5.1c-5.3-94.6-83.4-168.7-177.8-168.7-94.5 0-172.5 73.4-177.8 167.2l0.1 0.3c-0.1 0.8-0.1 3.6-0.1 8.9v0.1l-1.9 0.7c0 17.1 1.9 34 5.3 50.3v0.3c13.5 56.8 50.2 158 143.6 317.3 6.2 10.4 18.4 16.9 31.8 17 12.1-0.1 22.7-6.6 28.7-16.9 95.1-161.9 129.8-263.7 142.2-320.6v-0.3c3.4-12.5 5.4-24.8 6-37.4v-0.2c0.5-5.9 0.6-12.9 0.5-12.9zm-177 388.3q-0.2 0-0.4 0l0.6 5.3v-5.3q-0.1 0-0.2 0z"/>
					</g>
					<path id="&lt;Path&gt;" class="s53" d="m1476.6 229.3c0 58.5 47.4 105.9 105.9 105.9 58.5 0 105.9-47.4 105.9-105.9 0-58.5-47.4-106-105.9-106-58.5 0-105.9 47.5-105.9 106z"/>
					<g id="&lt;Group&gt;">
						<path id="&lt;Compound Path&gt;" fill-rule="evenodd" class="s54" d="m1470.7 229.3c0-61.7 50.1-111.9 111.8-111.9 61.7 0 111.9 50.2 111.9 111.9 0 61.6-50.2 111.8-111.9 111.8-61.7 0-111.8-50.2-111.8-111.8zm11.8 0c0 55.1 44.9 100 100 100 55.2 0 100-44.9 100-100 0-55.2-44.8-100-100-100-55.1 0-100 44.8-100 100z"/>
					</g>
				</g>
				<g id="&lt;Group&gt;">
					<path id="&lt;Path&gt;" class="s9" d="m1683 119c0.5 0 1-0.2 1.3-0.6 0.7-0.8 0.6-1.9-0.1-2.5-29.8-25.6-67.8-39.7-107.1-39.7-1 0-1.8 0.8-1.8 1.8 0 1 0.8 1.8 1.8 1.8 38.4 0 75.6 13.7 104.7 38.7 0.4 0.3 0.8 0.5 1.2 0.5z"/>
				</g>
				<g id="&lt;Group&gt;">
					<path id="&lt;Path&gt;" class="s9" d="m1739.7 242.4c1 0 1.8-0.8 1.8-1.8 0-30.7-8.5-60.6-24.6-86.5-0.5-0.9-1.6-1.1-2.4-0.6-0.9 0.5-1.1 1.6-0.6 2.5 15.7 25.3 24 54.6 24 84.6 0 1 0.8 1.8 1.8 1.8z"/>
				</g>
				<g id="&lt;Group&gt;">
					<path id="&lt;Path&gt;" class="s9" d="m1539 683.3c0 19.4 15.7 35.2 35.1 35.2 19.5 0 35.2-15.8 35.2-35.2 0-19.5-15.7-35.2-35.2-35.2-19.4 0-35.1 15.7-35.1 35.2z"/>
				</g>
			</g>
		</g>
	</g>
</svg>